<?xml version="1.0" encoding="UTF-8" standalone="no"?>
<!-- Created with Inkscape (http://www.inkscape.org/) -->

<svg
   xmlns:dc="http://purl.org/dc/elements/1.1/"
   xmlns:cc="http://creativecommons.org/ns#"
   xmlns:rdf="http://www.w3.org/1999/02/22-rdf-syntax-ns#"
   xmlns:svg="http://www.w3.org/2000/svg"
   xmlns="http://www.w3.org/2000/svg"
   xmlns:sodipodi="http://sodipodi.sourceforge.net/DTD/sodipodi-0.dtd"
   xmlns:inkscape="http://www.inkscape.org/namespaces/inkscape"
   width="173.62204"
   height="173.62204"
   id="svg2"
   version="1.1"
   inkscape:version="0.48.3.1 r9886"
   sodipodi:docname="aikido-suisu-square-yang-HakusyuTensyoKyokan.svg"
   inkscape:export-filename="aikido-suisu-square-yang-HakusyuTensyoKyokan.png"
   inkscape:export-xdpi="600.07501"
   inkscape:export-ydpi="600.07501">
  <defs
     id="defs4">
    <inkscape:perspective
       sodipodi:type="inkscape:persp3d"
       inkscape:vp_x="0 : 526.18109 : 1"
       inkscape:vp_y="0 : 1000 : 0"
       inkscape:vp_z="744.09448 : 526.18109 : 1"
       inkscape:persp3d-origin="372.04724 : 350.78739 : 1"
       id="perspective10" />
    <inkscape:perspective
       id="perspective2862"
       inkscape:persp3d-origin="0.5 : 0.33333333 : 1"
       inkscape:vp_z="1 : 0.5 : 1"
       inkscape:vp_y="0 : 1000 : 0"
       inkscape:vp_x="0 : 0.5 : 1"
       sodipodi:type="inkscape:persp3d" />
    <inkscape:perspective
       id="perspective2902"
       inkscape:persp3d-origin="0.5 : 0.33333333 : 1"
       inkscape:vp_z="1 : 0.5 : 1"
       inkscape:vp_y="0 : 1000 : 0"
       inkscape:vp_x="0 : 0.5 : 1"
       sodipodi:type="inkscape:persp3d" />
    <inkscape:perspective
       id="perspective3110"
       inkscape:persp3d-origin="0.5 : 0.33333333 : 1"
       inkscape:vp_z="1 : 0.5 : 1"
       inkscape:vp_y="0 : 1000 : 0"
       inkscape:vp_x="0 : 0.5 : 1"
       sodipodi:type="inkscape:persp3d" />
    <inkscape:perspective
       id="perspective2859"
       inkscape:persp3d-origin="0.5 : 0.33333333 : 1"
       inkscape:vp_z="1 : 0.5 : 1"
       inkscape:vp_y="0 : 1000 : 0"
       inkscape:vp_x="0 : 0.5 : 1"
       sodipodi:type="inkscape:persp3d" />
    <inkscape:perspective
       id="perspective2863"
       inkscape:persp3d-origin="0.5 : 0.33333333 : 1"
       inkscape:vp_z="1 : 0.5 : 1"
       inkscape:vp_y="0 : 1000 : 0"
       inkscape:vp_x="0 : 0.5 : 1"
       sodipodi:type="inkscape:persp3d" />
    <inkscape:perspective
       id="perspective2899"
       inkscape:persp3d-origin="0.5 : 0.33333333 : 1"
       inkscape:vp_z="1 : 0.5 : 1"
       inkscape:vp_y="0 : 1000 : 0"
       inkscape:vp_x="0 : 0.5 : 1"
       sodipodi:type="inkscape:persp3d" />
    <inkscape:perspective
       id="perspective2924"
       inkscape:persp3d-origin="0.5 : 0.33333333 : 1"
       inkscape:vp_z="1 : 0.5 : 1"
       inkscape:vp_y="0 : 1000 : 0"
       inkscape:vp_x="0 : 0.5 : 1"
       sodipodi:type="inkscape:persp3d" />
    <inkscape:perspective
       id="perspective3656"
       inkscape:persp3d-origin="0.5 : 0.33333333 : 1"
       inkscape:vp_z="1 : 0.5 : 1"
       inkscape:vp_y="0 : 1000 : 0"
       inkscape:vp_x="0 : 0.5 : 1"
       sodipodi:type="inkscape:persp3d" />
    <inkscape:perspective
       id="perspective2833"
       inkscape:persp3d-origin="0.5 : 0.33333333 : 1"
       inkscape:vp_z="1 : 0.5 : 1"
       inkscape:vp_y="0 : 1000 : 0"
       inkscape:vp_x="0 : 0.5 : 1"
       sodipodi:type="inkscape:persp3d" />
  </defs>
  <sodipodi:namedview
     id="base"
     pagecolor="#ffffff"
     bordercolor="#666666"
     borderopacity="1.0"
     inkscape:pageopacity="0"
     inkscape:pageshadow="2"
     inkscape:zoom="5.3507032"
     inkscape:cx="86.81102"
     inkscape:cy="86.81102"
     inkscape:document-units="pc"
     inkscape:current-layer="layer1"
     showgrid="false"
     inkscape:window-width="1855"
     inkscape:window-height="1056"
     inkscape:window-x="65"
     inkscape:window-y="24"
     inkscape:window-maximized="1"
     units="mm"
     inkscape:showpageshadow="false"
     showborder="false"
     showguides="true"
     inkscape:guide-bbox="true"
     borderlayer="false" />
  <metadata
     id="metadata7">
    <rdf:RDF>
      <cc:Work
         rdf:about="">
        <dc:format>image/svg+xml</dc:format>
        <dc:type
           rdf:resource="http://purl.org/dc/dcmitype/StillImage" />
        <dc:title></dc:title>
      </cc:Work>
    </rdf:RDF>
  </metadata>
  <g
     inkscape:label="Layer 1"
     inkscape:groupmode="layer"
     id="layer1"
     transform="translate(3.4272669e-6,-878.74011)">
    <g
       id="g3003"
       transform="matrix(2.0416668,0,0,2.0416668,3.6011145e-6,-1096.2107)">
      <rect
         rx="1.7903652"
         ry="1.7903653"
         y="967.82489"
         x="0.50211942"
         height="84.035118"
         width="84.035118"
         id="rect3646"
         style="color:#000000;fill:none;stroke:#000000;stroke-width:1.00424576;stroke-linecap:butt;stroke-linejoin:round;stroke-miterlimit:4;stroke-opacity:1;stroke-dasharray:none;stroke-dashoffset:0;marker:none;visibility:visible;display:inline;overflow:visible;enable-background:accumulate" />
      <g
         id="text3002"
         style="font-size:36.09290695px;font-style:normal;font-variant:normal;font-weight:normal;font-stretch:normal;line-height:125%;letter-spacing:0px;word-spacing:-1.28903234px;writing-mode:tb-rl;fill:#000000;fill-opacity:1;stroke:none;font-family:HakusyuTensyoKyokan;-inkscape-font-specification:HakusyuTensyoKyokan"
         transform="matrix(1.2890324,0,0,0.77577569,0,-3.9339373e-6)">
        <path
           sodipodi:nodetypes="ccccccccccccccccc"
           inkscape:connector-curvature="0"
           id="path3078"
           d="m 19.325938,1267.7268 c 3.689159,2.3263 7.589821,6.0625 11.701997,11.2085 1.057376,1.3159 1.374599,2.2206 0.951668,2.714 -0.540486,0.1175 -1.362915,-0.3642 -2.467288,-1.4451 -3.971187,-5.0051 -7.801355,-8.6825 -11.490516,-11.0323 -3.947676,3.7362 -8.4005404,7.3196 -13.3586048,10.7503 -1.5743693,1.1514 -2.5847817,1.5626 -3.0312402,1.2337 -0.516958,-0.517 0.093989,-1.3982 1.8328429,-2.6435 4.9345676,-3.5247 9.5989131,-7.3902 13.9930511,-11.5963 4.3941,-4.2296 7.672066,-8.2948 9.833907,-12.1955 1.080878,-1.9973 0.70491,-3.1252 -1.127903,-3.3837 -5.498551,-0.2584 -14.358105,-0.2114 -22.1124257,0.141 -1.574371,0.094 -2.3733017,-0.1174 -2.3967946,-0.6344 0.023493,-0.5639 0.7871767,-0.8929 2.2910537,-0.9869 7.7308226,-0.3525 16.7196156,-0.423 22.5001426,-0.2115 3.266189,0.517 4.147362,2.3968 2.643523,5.6395 -2.631802,4.7701 -5.88627,8.9175 -9.763413,12.4422" />
      </g>
      <g
         id="text2862-7"
         style="font-size:35.77515411px;font-style:normal;font-variant:normal;font-weight:normal;font-stretch:normal;text-align:center;writing-mode:tb-rl;text-anchor:middle;fill:#000000;fill-opacity:1;stroke:none;font-family:FreeSans;-inkscape-font-specification:FreeSans"
         transform="matrix(1.2940571,0,0,0.77276343,40.693635,0)">
        <path
           id="path2845-6"
           style="font-family:HakusyuTensyoKyokan;-inkscape-font-specification:HakusyuTensyoKyokan"
           d="m 25.346542,1281.4122 c 0.232885,-1.7701 0.384277,-3.878 0.454176,-6.3235 -5.752926,-0.4426 -11.587345,-0.4426 -17.5032732,0 -0.046591,2.4455 0.093155,4.5534 0.4192401,6.3235 0.2096104,1.5605 1.246064,2.4339 3.1093641,2.6202 3.563525,0.233 7.022252,0.233 10.376192,0 1.816682,-0.1397 2.864782,-1.0131 3.144301,-2.6202 m 0.873417,-21.9402 -5.415185,-0.3145 c -1.537234,-0.046 -2.74837,-0.5356 -3.633414,-1.4673 -0.90837,0.9317 -2.492165,1.4557 -4.751388,1.5721 l -4.4020206,0.2097 c -2.2825358,0.163 -3.5635459,1.7585 -3.8430341,4.7863 -0.3726624,8.3615 -0.4774723,15.6283 -0.3144301,21.8005 -4.5e-6,1.7934 -0.3377254,2.6901 -1.0131635,2.6901 -0.4891165,0 -0.733673,-0.8967 -0.7336702,-2.6901 -0.2096226,-6.2886 -0.1164582,-13.6719 0.2794934,-22.1499 0.27949,-3.9594 2.1194864,-6.0207 5.5199945,-6.1838 5.4966896,0.07 8.2799746,-0.8035 8.3498646,-2.6202 -1.6e-5,-1.2577 0.302768,-1.8866 0.908354,-1.8866 0.582259,0 0.873398,0.6289 0.873417,1.8866 -0.0466,1.9099 2.725039,2.7833 8.314928,2.6202 3.377182,0.2097 5.193887,2.2709 5.450121,6.1838 0.535663,8.478 0.67541,15.8613 0.41924,22.1499 -3.2e-5,1.7934 -0.26788,2.6901 -0.803543,2.6901 -0.628892,0 -0.943321,-0.8967 -0.94329,-2.6901 0.23288,-6.1722 0.08149,-13.439 -0.454177,-21.8005 -0.256233,-2.9813 -1.525597,-4.5767 -3.808097,-4.7863 m -0.698734,6.7777 c -5.566597,-0.2795 -11.063295,-0.2795 -16.49011,0 -1.7934239,0.1397 -2.690131,-0.093 -2.6901239,-0.6988 -7.1e-6,-0.5822 0.8967,-0.9549 2.6901239,-1.1179 5.426815,-0.2562 10.923513,-0.2562 16.49011,0 1.793388,0.163 2.690095,0.5357 2.690124,1.1179 -2.9e-5,0.6056 -0.896736,0.8385 -2.690124,0.6988 m -17.2237802,7.0572 c 5.9159282,-0.4425 11.7503472,-0.4425 17.5032732,0 0.209594,-2.0263 0.593897,-3.0395 1.152911,-3.0395 0.535667,0 0.756933,0.9084 0.663797,2.7251 -0.02332,3.1676 -0.198003,5.9741 -0.524051,8.4197 -0.279521,2.6785 -1.909897,4.0876 -4.891134,4.2273 -3.35394,0.3494 -6.812667,0.3494 -10.376192,0 -3.0278547,-0.163 -4.6465856,-1.5721 -4.8561978,-4.2273 -0.3726651,-2.4456 -0.5240572,-5.2521 -0.4541767,-8.4197 -0.023298,-1.8167 0.2329037,-2.7251 0.7686068,-2.7251 0.5589782,0 0.8966991,1.0132 1.0131635,3.0395"
           inkscape:connector-curvature="0" />
        <path
           id="path2847-5"
           style="font-family:HakusyuTensyoKyokan;-inkscape-font-specification:HakusyuTensyoKyokan"
           d="m 11.651366,1313.7636 c -2.1427934,-1.5373 -4.1691184,-2.8183 -6.0789817,-3.8431 -1.3043075,-0.5357 -1.8400026,-1.083 -1.607087,-1.642 0.3260706,-0.5124 1.1412588,-0.5124 2.4455671,0 2.5154309,1.2111 4.7513756,2.5853 6.7078416,4.1225 1.909856,-1.5605 4.017699,-2.8881 6.323538,-3.9828 1.537192,-0.722 2.468835,-0.7802 2.794934,-0.1746 0.209597,0.559 -0.4542,1.1762 -1.991391,1.8516 -2.003055,0.8152 -3.854696,1.9914 -5.554931,3.5286 2.259221,2.0263 4.553393,4.4486 6.882525,7.2668 1.32757,1.4907 1.793392,2.4572 1.397467,2.8998 -0.442555,0.4891 -1.362553,-0.07 -2.759997,-1.677 -2.375713,-2.7949 -4.681531,-5.1823 -6.917462,-7.162 -2.888109,2.6785 -5.3686107,5.2987 -7.4415113,7.8608 -0.9316503,1.1179 -1.6536742,1.5255 -2.1660738,1.2227 -0.3726619,-0.4192 -0.069878,-1.3159 0.9083535,-2.6901 2.0030287,-2.6319 4.355429,-5.159 7.0572086,-7.5812 m -7.231892,-9.398 c -1.6536727,0.1863 -2.4572154,0 -2.4106305,-0.559 0.046579,-0.6056 0.8967044,-0.9899 2.5503772,-1.1529 6.3584633,-0.7453 12.3442743,-0.7802 17.9574503,-0.1048 3.540223,0.2795 5.566548,1.9099 6.078981,4.8911 0.1863,0.6988 0.221236,1.7236 0.10481,3.0744 -0.09319,1.3276 -0.174712,2.4223 -0.244556,3.2841 -0.04661,0.8385 0.06984,1.9215 0.349366,3.2491 0.279464,1.3043 0.885032,2.7367 1.816707,4.2972 1.117942,1.6304 1.432371,2.5853 0.943291,2.8648 -0.605601,0.2562 -1.490663,-0.4891 -2.655188,-2.2359 -0.931673,-1.6537 -1.548887,-3.156 -1.851643,-4.5069 -0.279521,-1.3508 -0.395977,-2.4572 -0.349367,-3.3189 0.04656,-0.8851 0.116428,-1.9914 0.20962,-3.319 0.116428,-1.3509 0.08149,-2.3641 -0.10481,-3.0395 -0.512432,-2.0729 -1.991416,-3.2375 -4.436958,-3.4937 -5.520012,-0.6521 -11.505822,-0.6288 -17.95745,0.07 m 22.813648,-3.9479 c -6.474952,-1.1412 -13.497216,-1.409 -21.0668143,-0.8035 -1.793421,0.047 -2.6784825,-0.2096 -2.6551872,-0.7686 0.069869,-0.6056 0.9898672,-0.9316 2.7599972,-0.9782 7.5463073,-0.6289 14.5569263,-0.361 21.0318773,0.8035 1.770095,0.2329 2.62022,0.6289 2.550378,1.1879 -3.1e-5,0.5823 -0.873447,0.7686 -2.620251,0.5589 m 2.585314,-5.8344 c 1.630346,0.4426 2.35237,0.955 2.166074,1.5372 -0.186362,0.5358 -1.094714,0.5823 -2.725061,0.1398 -8.268368,-1.5838 -15.372151,-1.9797 -21.3113709,-1.1879 -3.4703815,0.093 -4.6465817,-1.281 -3.5286041,-4.1225 0.4658167,-1.2344 0.9898663,-1.84 1.5721504,-1.8167 0.5822706,0.07 0.6172072,0.7453 0.10481,2.0263 -0.6754485,1.4441 -0.2445633,2.1545 1.2926569,2.1312 7.0571927,-0.9317 14.5336337,-0.5008 22.4293447,1.2926"
           inkscape:connector-curvature="0" />
        <path
           id="path2849-5"
           style="font-family:HakusyuTensyoKyokan;-inkscape-font-specification:HakusyuTensyoKyokan"
           d="m 11.860986,1327.319 c -2.6086154,-0.1863 -5.0075979,-0.1863 -7.1969553,0 -1.7701284,0.163 -2.6551899,-0.058 -2.6551872,-0.6638 -2.7e-6,-0.6056 0.8850588,-0.9782 2.6551872,-1.118 2.1893574,-0.1863 4.5883399,-0.1863 7.1969553,0 1.793401,0.1398 2.690108,0.5124 2.690123,1.118 -1.5e-5,0.6056 -0.896722,0.8268 -2.690123,0.6638 m -7.6161953,15.442 c -0.093169,4.0294 -0.1746882,8.0937 -0.2445568,12.1929 0.1164508,1.5605 1.16455,2.3873 3.1443007,2.4805 l 0.034937,-20.2633 -2.6202506,0.035 c -1.700255,0.1397 -2.5853165,-0.07 -2.6551872,-0.6289 -0.069876,-0.6055 0.7453123,-0.9782 2.4455672,-1.118 2.1893576,-0.023 4.3437837,-0.023 6.463284,0 1.51391,-0.023 2.282516,-0.7802 2.305821,-2.2709 0.06986,-0.8151 -0.756975,-1.246 -2.480504,-1.2926 -1.9797539,-0.07 -4.0410156,0.012 -6.183791,0.2445 -1.7002549,0.2097 -2.5853165,0.035 -2.6551872,-0.524 -0.046585,-0.6056 0.7802491,-1.0131 2.4805038,-1.2228 2.259231,-0.2562 4.2389739,-0.3377 5.9392344,-0.2445 2.957958,0.023 4.530106,1.0597 4.716451,3.1093 -0.163053,2.9813 -2.166087,4.2972 -6.0091077,3.9479 l 0,14.1144 c 2.1427707,0 3.2258067,-1.0831 3.2491107,-3.2491 -1.3e-5,-2.0264 -0.0233,-3.9944 -0.06987,-5.9043 -0.116468,-1.677 0.116443,-2.5504 0.698734,-2.6203 0.605555,-0.07 0.966567,0.7919 1.083037,2.5853 0.06986,1.7469 0.104795,3.5636 0.10481,5.4502 -1.5e-5,3.6567 -1.688619,5.5316 -5.0658177,5.6248 l 0,4.1924 c 4.4718797,-0.047 8.6293397,-0.035 12.4723927,0.035 3.843008,0.093 6.614648,0.3494 8.314928,0.7686 1.909839,0.3494 2.759964,0.9084 2.550377,1.677 -3.3e-5,0.326 -1.164587,0.2795 -3.493667,-0.1398 -0.8618,-0.2096 -2.119519,-0.361 -3.773161,-0.4542 -1.630402,-0.07 -3.400525,-0.1281 -5.310374,-0.1746 -1.886599,-0.023 -3.784823,-0.023 -5.694678,0 -1.886594,0.046 -3.843045,0.082 -5.8693612,0.1048 -4.1691145,0.2795 -6.1721484,-1.2112 -6.009108,-4.4719 0.093162,-4.0527 0.1979715,-8.0471 0.3144301,-11.9833 -3.1e-6,-1.677 0.3027811,-2.5154 0.9083535,-2.5154 0.6055644,0 0.9083486,0.8384 0.9083536,2.5154 m 13.799986,-2.3757 c 4.332124,-0.2795 8.408066,-0.2795 12.227836,0 0.209589,-2.3291 -0.50079,-3.482 -2.131137,-3.4587 -2.399012,-0.2329 -4.844576,-0.2562 -7.336702,-0.07 -2.072929,0.023 -2.992927,1.1995 -2.759997,3.5286 m 12.227836,5.9043 0,-4.1225 c -3.796479,-0.2562 -7.872421,-0.2562 -12.227836,0 l 0,4.1574 c 4.378707,-0.2562 8.454648,-0.2678 12.227836,-0.035 m 0,1.8866 c -3.726606,-0.2562 -7.802547,-0.2562 -12.227836,0 -0.186348,3.1909 0.815169,4.6582 3.004554,4.402 2.119467,-0.1165 4.565032,-0.1165 7.336701,0 1.211108,0 1.839968,-1.4673 1.886581,-4.402 m -6.672905,-17.678 1.67696,0 0.384304,-2.1311 c 0.442504,-2.4223 1.828324,-3.482 4.157464,-3.1793 1.816675,0.023 2.713382,0.3378 2.690124,0.9433 -0.04662,0.5823 -0.978259,0.8618 -2.794934,0.8385 -1.257749,-0.163 -2.01471,0.2795 -2.270884,1.3276 l -0.279493,2.201 c 1.02478,0.023 2.072879,0.093 3.1443,0.2096 1.700219,0.2796 2.550344,0.7221 2.550378,1.3276 -3.4e-5,0.5823 -0.850159,0.7454 -2.550378,0.4891 -1.071421,-0.1397 -2.74838,-0.2212 -5.030881,-0.2445 l 0,2.4106 3.004554,0.1747 c 2.631865,0.07 3.831356,1.6537 3.598478,4.7514 0.06984,3.517 0.06984,7.2901 0,11.3195 -3.3e-5,2.003 -1.118005,3.1326 -3.353921,3.3888 -2.841543,-0.047 -5.380272,-0.047 -7.616195,0 -2.95799,0.1165 -4.483557,-1.0597 -4.576704,-3.5286 -0.139764,-3.9362 -0.139764,-7.6744 0,-11.2146 0.04657,-3.3074 1.560486,-4.8795 4.541767,-4.7165 l 2.725061,-0.1747 0,-2.4106 c -2.212678,0.023 -3.971156,0.082 -5.275438,0.1747 -1.793433,0.1863 -2.69014,-0.023 -2.690124,-0.6289 -1.6e-5,-0.5822 0.896691,-0.9665 2.690124,-1.1529 1.304282,-0.093 2.445546,-0.1514 3.423794,-0.1747 l -0.31443,-2.201 c -0.256224,-1.0481 -1.327614,-1.4789 -3.214174,-1.2926 -1.420775,0.023 -2.142799,-0.2562 -2.166074,-0.8385 -0.0466,-0.6056 0.652134,-0.92 2.096201,-0.9433 3.307316,-0.3261 5.007566,0.722 5.100754,3.1443 l 0.349367,2.1311"
           inkscape:connector-curvature="0" />
      </g>
      <g
         id="text3002-5"
         style="font-size:35.09313965px;font-style:normal;font-variant:normal;font-weight:normal;font-stretch:normal;line-height:125%;letter-spacing:0px;word-spacing:-1.25332642px;writing-mode:tb-rl;fill:#000000;fill-opacity:1;stroke:none;font-family:HakusyuTensyoKyokan;-inkscape-font-specification:HakusyuTensyoKyokan"
         transform="matrix(1.2533265,0,0,0.84080322,0,-54.144085)">
        <path
           inkscape:connector-curvature="0"
           id="path3081"
           d="m 20.583778,1279.2951 c -2.1e-5,1.7592 -0.297032,2.6388 -0.891037,2.6388 -0.571196,0 -0.856785,-0.8796 -0.856766,-2.6388 l 0,-16.5185 c -4.912139,2.1477 -9.7442954,3.9069 -14.4964824,5.2777 -1.8277701,0.5255 -2.7645001,0.5598 -2.8101929,0.1028 -0.2513191,-0.6625 0.582599,-1.2566 2.5017571,-1.782 6.2144002,-1.805 11.4692272,-3.8726 15.7644962,-6.203 4.318077,-2.3533 7.939338,-5.3234 10.863794,-8.9104 1.005241,-1.348 1.724924,-1.8963 2.159051,-1.645 0.616838,0.4113 0.399791,1.3252 -0.651142,2.7417 -4.1582,4.7065 -8.019355,7.8822 -11.583478,9.5272 l 0,17.4095" />
      </g>
      <g
         id="text3002-1"
         style="font-size:36.09290695px;font-style:normal;font-variant:normal;font-weight:normal;font-stretch:normal;line-height:125%;letter-spacing:0px;word-spacing:-1.28903234px;writing-mode:tb-rl;fill:#000000;fill-opacity:1;stroke:none;font-family:HakusyuTensyoKyokan;-inkscape-font-specification:HakusyuTensyoKyokan"
         transform="scale(1.2890324,0.77577569)">
        <path
           sodipodi:nodetypes="ccccccccccccccccc"
           inkscape:connector-curvature="0"
           id="path3084"
           d="m 19.325938,1340.6346 c 3.689159,2.3263 7.589821,6.0625 11.701997,11.2086 1.057376,1.3158 1.374599,2.2205 0.951668,2.714 -0.540486,0.1175 -1.362915,-0.3642 -2.467288,-1.4452 -3.971187,-5.005 -7.801355,-8.6825 -11.490516,-11.0323 -3.947676,3.7362 -8.4005404,7.3197 -13.3586048,10.7504 -1.5743693,1.1514 -2.5847817,1.5626 -3.0312402,1.2336 -0.516958,-0.5169 0.093989,-1.3981 1.8328429,-2.6435 4.9345676,-3.5247 9.5989131,-7.3901 13.9930511,-11.5963 4.3941,-4.2296 7.672066,-8.2947 9.833907,-12.1954 1.080878,-1.9973 0.70491,-3.1252 -1.127903,-3.3837 -5.498551,-0.2585 -14.411915,-0.2115 -22.1662361,0.141 -1.574371,0.094 -2.3733017,-0.1175 -2.3967946,-0.6345 0.023493,-0.5639 0.7871767,-0.8929 2.2910537,-0.9869 7.730823,-0.3524 16.773426,-0.4229 22.553953,-0.2115 3.266189,0.517 4.147362,2.3968 2.643523,5.6395 -2.631802,4.7701 -5.88627,8.9175 -9.763413,12.4422" />
      </g>
    </g>
  </g>
</svg>
