<?xml version="1.0" encoding="UTF-8" standalone="no"?>
<!-- Created with Inkscape (http://www.inkscape.org/) -->

<svg
   xmlns:dc="http://purl.org/dc/elements/1.1/"
   xmlns:cc="http://creativecommons.org/ns#"
   xmlns:rdf="http://www.w3.org/1999/02/22-rdf-syntax-ns#"
   xmlns:svg="http://www.w3.org/2000/svg"
   xmlns="http://www.w3.org/2000/svg"
   xmlns:sodipodi="http://sodipodi.sourceforge.net/DTD/sodipodi-0.dtd"
   xmlns:inkscape="http://www.inkscape.org/namespaces/inkscape"
   width="85.039368"
   height="85.039368"
   id="svg2"
   version="1.1"
   inkscape:version="0.47 r22583"
   sodipodi:docname="dojo-neuchatel-square-yang-HakusyuTensyoKyokan.svg"
   inkscape:export-filename="dojo-neuchatel-square-yang-HakusyuTensyoKyokan.png"
   inkscape:export-xdpi="600.07501"
   inkscape:export-ydpi="600.07501">
  <defs
     id="defs4">
    <inkscape:perspective
       sodipodi:type="inkscape:persp3d"
       inkscape:vp_x="0 : 526.18109 : 1"
       inkscape:vp_y="0 : 1000 : 0"
       inkscape:vp_z="744.09448 : 526.18109 : 1"
       inkscape:persp3d-origin="372.04724 : 350.78739 : 1"
       id="perspective10" />
    <inkscape:perspective
       id="perspective2862"
       inkscape:persp3d-origin="0.5 : 0.33333333 : 1"
       inkscape:vp_z="1 : 0.5 : 1"
       inkscape:vp_y="0 : 1000 : 0"
       inkscape:vp_x="0 : 0.5 : 1"
       sodipodi:type="inkscape:persp3d" />
    <inkscape:perspective
       id="perspective2902"
       inkscape:persp3d-origin="0.5 : 0.33333333 : 1"
       inkscape:vp_z="1 : 0.5 : 1"
       inkscape:vp_y="0 : 1000 : 0"
       inkscape:vp_x="0 : 0.5 : 1"
       sodipodi:type="inkscape:persp3d" />
    <inkscape:perspective
       id="perspective3110"
       inkscape:persp3d-origin="0.5 : 0.33333333 : 1"
       inkscape:vp_z="1 : 0.5 : 1"
       inkscape:vp_y="0 : 1000 : 0"
       inkscape:vp_x="0 : 0.5 : 1"
       sodipodi:type="inkscape:persp3d" />
    <inkscape:perspective
       id="perspective2859"
       inkscape:persp3d-origin="0.5 : 0.33333333 : 1"
       inkscape:vp_z="1 : 0.5 : 1"
       inkscape:vp_y="0 : 1000 : 0"
       inkscape:vp_x="0 : 0.5 : 1"
       sodipodi:type="inkscape:persp3d" />
    <inkscape:perspective
       id="perspective2863"
       inkscape:persp3d-origin="0.5 : 0.33333333 : 1"
       inkscape:vp_z="1 : 0.5 : 1"
       inkscape:vp_y="0 : 1000 : 0"
       inkscape:vp_x="0 : 0.5 : 1"
       sodipodi:type="inkscape:persp3d" />
    <inkscape:perspective
       id="perspective2899"
       inkscape:persp3d-origin="0.5 : 0.33333333 : 1"
       inkscape:vp_z="1 : 0.5 : 1"
       inkscape:vp_y="0 : 1000 : 0"
       inkscape:vp_x="0 : 0.5 : 1"
       sodipodi:type="inkscape:persp3d" />
    <inkscape:perspective
       id="perspective2924"
       inkscape:persp3d-origin="0.5 : 0.33333333 : 1"
       inkscape:vp_z="1 : 0.5 : 1"
       inkscape:vp_y="0 : 1000 : 0"
       inkscape:vp_x="0 : 0.5 : 1"
       sodipodi:type="inkscape:persp3d" />
    <inkscape:perspective
       id="perspective3656"
       inkscape:persp3d-origin="0.5 : 0.33333333 : 1"
       inkscape:vp_z="1 : 0.5 : 1"
       inkscape:vp_y="0 : 1000 : 0"
       inkscape:vp_x="0 : 0.5 : 1"
       sodipodi:type="inkscape:persp3d" />
    <inkscape:perspective
       id="perspective2833"
       inkscape:persp3d-origin="0.5 : 0.33333333 : 1"
       inkscape:vp_z="1 : 0.5 : 1"
       inkscape:vp_y="0 : 1000 : 0"
       inkscape:vp_x="0 : 0.5 : 1"
       sodipodi:type="inkscape:persp3d" />
    <inkscape:perspective
       id="perspective2847"
       inkscape:persp3d-origin="0.5 : 0.33333333 : 1"
       inkscape:vp_z="1 : 0.5 : 1"
       inkscape:vp_y="0 : 1000 : 0"
       inkscape:vp_x="0 : 0.5 : 1"
       sodipodi:type="inkscape:persp3d" />
    <inkscape:perspective
       id="perspective2847-4"
       inkscape:persp3d-origin="0.5 : 0.33333333 : 1"
       inkscape:vp_z="1 : 0.5 : 1"
       inkscape:vp_y="0 : 1000 : 0"
       inkscape:vp_x="0 : 0.5 : 1"
       sodipodi:type="inkscape:persp3d" />
    <inkscape:perspective
       id="perspective2847-0"
       inkscape:persp3d-origin="0.5 : 0.33333333 : 1"
       inkscape:vp_z="1 : 0.5 : 1"
       inkscape:vp_y="0 : 1000 : 0"
       inkscape:vp_x="0 : 0.5 : 1"
       sodipodi:type="inkscape:persp3d" />
    <inkscape:perspective
       id="perspective2979"
       inkscape:persp3d-origin="0.5 : 0.33333333 : 1"
       inkscape:vp_z="1 : 0.5 : 1"
       inkscape:vp_y="0 : 1000 : 0"
       inkscape:vp_x="0 : 0.5 : 1"
       sodipodi:type="inkscape:persp3d" />
    <inkscape:perspective
       id="perspective3092"
       inkscape:persp3d-origin="0.5 : 0.33333333 : 1"
       inkscape:vp_z="1 : 0.5 : 1"
       inkscape:vp_y="0 : 1000 : 0"
       inkscape:vp_x="0 : 0.5 : 1"
       sodipodi:type="inkscape:persp3d" />
    <inkscape:perspective
       id="perspective2874"
       inkscape:persp3d-origin="0.5 : 0.33333333 : 1"
       inkscape:vp_z="1 : 0.5 : 1"
       inkscape:vp_y="0 : 1000 : 0"
       inkscape:vp_x="0 : 0.5 : 1"
       sodipodi:type="inkscape:persp3d" />
    <inkscape:perspective
       id="perspective2940"
       inkscape:persp3d-origin="0.5 : 0.33333333 : 1"
       inkscape:vp_z="1 : 0.5 : 1"
       inkscape:vp_y="0 : 1000 : 0"
       inkscape:vp_x="0 : 0.5 : 1"
       sodipodi:type="inkscape:persp3d" />
    <inkscape:perspective
       id="perspective2965"
       inkscape:persp3d-origin="0.5 : 0.33333333 : 1"
       inkscape:vp_z="1 : 0.5 : 1"
       inkscape:vp_y="0 : 1000 : 0"
       inkscape:vp_x="0 : 0.5 : 1"
       sodipodi:type="inkscape:persp3d" />
  </defs>
  <sodipodi:namedview
     id="base"
     pagecolor="#ffffff"
     bordercolor="#666666"
     borderopacity="1.0"
     inkscape:pageopacity="0"
     inkscape:pageshadow="2"
     inkscape:zoom="7.0790746"
     inkscape:cx="43.587755"
     inkscape:cy="42.519708"
     inkscape:document-units="pc"
     inkscape:current-layer="layer1"
     showgrid="false"
     inkscape:window-width="1280"
     inkscape:window-height="750"
     inkscape:window-x="0"
     inkscape:window-y="26"
     inkscape:window-maximized="1"
     units="mm"
     inkscape:showpageshadow="false"
     showborder="false"
     showguides="true"
     inkscape:guide-bbox="true">
    <sodipodi:guide
       orientation="1,0"
       position="42.519531,14.324219"
       id="guide2926" />
  </sodipodi:namedview>
  <metadata
     id="metadata7">
    <rdf:RDF>
      <cc:Work
         rdf:about="">
        <dc:format>image/svg+xml</dc:format>
        <dc:type
           rdf:resource="http://purl.org/dc/dcmitype/StillImage" />
        <dc:title></dc:title>
      </cc:Work>
    </rdf:RDF>
  </metadata>
  <g
     inkscape:label="Layer 1"
     inkscape:groupmode="layer"
     id="layer1"
     transform="translate(3.4272669e-6,-967.32279)">
    <rect
       style="color:#000000;fill:none;stroke:#000000;stroke-width:1.00424576;stroke-linecap:butt;stroke-linejoin:round;stroke-miterlimit:4;stroke-opacity:1;stroke-dasharray:none;stroke-dashoffset:0;marker:none;visibility:visible;display:inline;overflow:visible;enable-background:accumulate"
       id="rect3646"
       width="84.035118"
       height="84.035118"
       x="0.50211942"
       y="967.82489"
       ry="1.7903653"
       rx="1.7903652" />
    <g
       transform="scale(1.0697584,0.93479052)"
       style="font-size:43.73968506px;font-style:normal;font-variant:normal;font-weight:normal;font-stretch:normal;text-align:center;text-anchor:middle;fill:#000000;fill-opacity:1;stroke:none;font-family:HakusyuTensyoKyokan;-inkscape-font-specification:HakusyuTensyoKyokan"
       id="text2831-2">
      <path
         d="m 9.836661,1055.9848 -3.3744484,0 c -2.9900223,0 -4.4850296,-1.495 -4.4850263,-4.485 -0.1139086,-2.2211 0.1850928,-3.3317 0.8970053,-3.3317 0.7403803,0 1.1675252,1.1106 1.2814361,3.3317 -5.5e-6,1.5377 0.6834264,2.3066 2.0502977,2.3066 l 3.6307356,0 0,-2.9046 c -2.1642122,-0.1139 -3.3175035,-1.3811 -3.4598775,-3.8016 l -0.085429,-1.8367 -1.110578,0 c -2.3920181,0.1709 -3.4883568,-0.1 -3.2890193,-0.8116 -3.2e-6,-0.7404 1.0963355,-1.196 3.2890193,-1.3669 3.8727742,-0.3416 7.6174115,-0.2847 11.2339235,0.1709 2.164183,0.1424 3.246283,0.5696 3.246304,1.2814 -2.1e-5,0.7404 -1.082121,1.0394 -3.246304,0.897 l -0.683433,-0.1281 -0.170858,1.9221 c -1.7e-5,2.2497 -1.181785,3.4742 -3.545307,3.6735 l 0,2.9046 4.015167,0 c 0.939701,0.057 1.409561,-0.6407 1.409579,-2.093 0.02846,-2.1073 0.412888,-3.1609 1.153293,-3.1609 0.711888,0 1.053604,1.0536 1.025149,3.1609 -2.1e-5,2.9046 -1.366885,4.3284 -4.100596,4.2714 l -3.502592,0 0,2.5629 c 1.281422,0.028 2.747953,0.071 4.399598,0.1281 2.050277,0.1424 3.075425,0.5981 3.075446,1.3669 -2.1e-5,0.6835 -1.025169,0.954 -3.075446,0.8116 -1.651645,-0.057 -3.118176,-0.1 -4.399598,-0.1282 l 0,3.0755 c 4.015149,-0.1993 6.350208,1.7655 7.005184,5.8946 0.31322,2.5913 0.455601,4.9691 0.427146,7.1333 0.02846,2.1357 -0.327499,3.2748 -1.067864,3.4172 -0.76888,0.1139 -1.124835,-0.9397 -1.067863,-3.1609 -1.9e-5,-2.1072 -0.128162,-4.485 -0.384431,-7.1333 -0.313258,-2.392 -1.950647,-3.7162 -4.912172,-3.9725 l 0,11.7892 c -1.3e-5,2.1642 -0.355967,3.2463 -1.067863,3.2463 -0.740397,0 -1.1105892,-1.0821 -1.110578,-3.2463 l 0,-11.7892 c -3.274789,0.2278 -5.0403214,1.5378 -5.2966025,3.9298 -0.3417218,2.6198 -0.5125798,4.9976 -0.5125744,7.1333 0.085424,2.2211 -0.2562924,3.2748 -1.0251489,3.1609 -0.7688652,-0.1424 -1.1390575,-1.2815 -1.110578,-3.4172 -0.028479,-2.1642 0.1566166,-4.542 0.555289,-7.1333 0.5979991,-4.1291 3.0612016,-6.0797 7.3896148,-5.8519 l 0,-3.0755 c -1.4238277,0.028 -3.0042639,0.085 -4.7413135,0.1709 -2.0503022,0.085 -3.07545,-0.242 -3.0754466,-0.9824 -3.4e-6,-0.7404 1.0251444,-1.1391 3.0754466,-1.196 1.7370496,-0.085 3.3174858,-0.1424 4.7413135,-0.1709 l 0,-2.5629 m 25.201576,-9.3972 c -3.246338,-0.3417 -5.923112,-0.3132 -8.030332,0.085 -1.964896,0.2847 -2.918853,2.335 -2.861874,6.1508 4.242947,-0.6264 8.158442,-0.7118 11.746497,-0.2562 2.078735,0.2563 3.118121,0.7546 3.118161,1.495 -4e-5,0.7404 -1.082141,0.9824 -3.246305,0.7261 l -2.861873,-0.299 c 0.541016,9.1694 1.694307,16.7726 3.459877,22.8096 0.541012,2.0503 0.441345,3.1608 -0.299002,3.3317 -0.683469,0.1993 -1.29571,-0.7546 -1.836725,-2.8619 -1.794044,-6.1224 -3.004288,-13.8537 -3.630735,-23.194 -2.335091,-0.085 -4.44234,0.071 -6.321752,0.4699 0.170833,3.5596 0.02845,11.0773 -0.427145,22.5533 -0.170883,2.1927 -0.612266,3.289 -1.324151,3.289 -0.768885,0 -1.03941,-1.1391 -0.811576,-3.4172 0.427122,-11.419 0.498313,-20.2039 0.213573,-26.3548 -0.484121,-3.9297 1.21022,-6.1367 5.08303,-6.6208 2.10722,-0.2562 4.798233,-0.3274 8.073047,-0.2136 1.366827,-0.3416 1.936354,-1.139 1.708581,-2.392 -0.02851,-1.3383 -1.181805,-2.0218 -3.459877,-2.0503 -3.75891,10e-5 -6.791639,0.043 -9.098196,0.1282 -2.192703,0.1709 -3.345995,-0.1 -3.459878,-0.8116 -0.08545,-0.7404 1.039364,-1.196 3.374449,-1.3669 2.477415,-0.085 5.339286,-0.1281 8.585621,-0.1281 4.100558,0 6.17933,1.3669 6.236323,4.1006 0.256246,3.3602 -1.053665,4.9691 -3.929738,4.8267 m -26.4830121,0.5126 c 0.2278007,1.1676 1.0393761,1.7086 2.4347281,1.6232 1.480757,0.1993 2.278094,-0.299 2.392014,-1.4951 l 0.170859,-2.093 c -1.708595,-0.028 -3.388698,-0.028 -5.0403156,0 l 0.042715,1.9649 m 7.1333271,-7.0479 c -2.990031,-0.2562 -6.2932853,-0.2562 -9.909772,0 -2.1926844,0.1994 -3.2890231,-0.071 -3.2890192,-0.8116 -3.9e-6,-0.7118 1.0963348,-1.1675 3.2890192,-1.3668 3.6164867,-0.2563 6.919741,-0.2563 9.909772,0 2.192661,0.1993 3.288999,0.655 3.28902,1.3668 -2.1e-5,0.7404 -1.096359,1.011 -3.28902,0.8116"
         style="text-align:start;writing-mode:tb-rl;text-anchor:start"
         id="path2992" />
    </g>
    <g
       transform="scale(1.0668479,0.93734074)"
       style="font-size:43.51443863px;font-style:normal;font-variant:normal;font-weight:normal;font-stretch:normal;text-align:center;text-anchor:middle;fill:#000000;fill-opacity:1;stroke:none;font-family:HakusyuTensyoKyokan;-inkscape-font-specification:HakusyuTensyoKyokan"
       id="text2831-2-5">
      <path
         d="m 52.983987,1037.8108 c -3.17294,-0.2266 -6.090898,-0.2266 -8.753882,0 -2.153062,0.1984 -3.22959,-0.071 -3.229587,-0.8074 -3e-6,-0.7365 1.076525,-1.1898 3.229587,-1.3598 2.662984,-0.2266 5.580942,-0.2266 8.753882,0 2.18137,0.17 3.272063,0.6233 3.272081,1.3598 -1.8e-5,0.7366 -1.090711,1.0058 -3.272081,0.8074 m -9.263817,18.7826 c -0.113324,4.9011 -0.212478,9.8446 -0.297461,14.8306 0.141642,1.8981 1.416478,2.9038 3.824511,3.0171 l 0.04249,-24.6468 -3.187092,0.043 c -2.068074,0.17 -3.144602,-0.085 -3.229588,-0.7649 -0.08499,-0.7366 0.906547,-1.1898 2.97462,-1.3598 2.662984,-0.028 5.28348,-0.028 7.861495,0 1.841416,-0.028 2.776295,-0.9491 2.804642,-2.7622 0.08497,-0.9915 -0.920732,-1.5156 -3.017114,-1.5723 -2.408037,-0.085 -4.915214,0.014 -7.521539,0.2975 -2.068073,0.255 -3.144601,0.043 -3.229587,-0.6374 -0.05666,-0.7366 0.949041,-1.2324 3.017114,-1.4874 2.747973,-0.3116 5.155997,-0.4107 7.224077,-0.2974 3.597856,0.028 5.51011,1.289 5.736767,3.782 -0.198327,3.6262 -2.63468,5.2269 -7.309066,4.8019 l 0,17.1678 c 2.606319,0 3.923649,-1.3173 3.951995,-3.952 -1.6e-5,-2.4647 -0.02835,-4.8585 -0.08499,-7.1816 -0.141665,-2.0397 0.141632,-3.1021 0.849891,-3.1871 0.736555,-0.085 1.175665,0.9632 1.317332,3.1446 0.08497,2.1248 0.127465,4.3345 0.127483,6.6292 -1.8e-5,4.4477 -2.05392,6.7283 -6.161712,6.8416 l 0,5.0993 c 5.439287,-0.057 10.496136,-0.043 15.170561,0.043 4.674371,0.1134 8.045603,0.425 10.113707,0.9349 2.322997,0.425 3.357031,1.1049 3.102104,2.0398 -4e-5,0.3966 -1.416525,0.3399 -4.249457,-0.17 -1.048234,-0.255 -2.578037,-0.4391 -4.589414,-0.5524 -1.983109,-0.085 -4.136165,-0.1559 -6.459174,-0.2125 -2.294729,-0.028 -4.603599,-0.028 -6.926615,0 -2.294722,0.057 -4.674416,0.099 -7.139087,0.1275 -5.071025,0.3399 -7.507377,-1.4732 -7.309066,-5.4393 0.113315,-4.9294 0.240799,-9.7879 0.382451,-14.5757 -4e-6,-2.0397 0.368282,-3.0596 1.104859,-3.0596 0.736567,0 1.104852,1.0199 1.104858,3.0596 m 16.785355,-2.8896 c 5.269299,-0.3399 10.226993,-0.3399 14.873099,0 0.25493,-2.833 -0.609126,-4.2353 -2.592168,-4.207 -2.917993,-0.2832 -5.89261,-0.3116 -8.92386,-0.085 -2.521368,0.028 -3.64039,1.459 -3.357071,4.292 m 14.873099,7.1816 0,-5.0144 c -4.617776,-0.3116 -9.575471,-0.3116 -14.873099,0 l 0,5.0569 c 5.325958,-0.3116 10.283653,-0.3258 14.873099,-0.043 m 0,2.2947 c -4.532787,-0.3116 -9.490482,-0.3116 -14.873099,0 -0.22666,3.8812 0.991516,5.6659 3.654533,5.3543 2.577975,-0.1417 5.552592,-0.1417 8.92386,0 1.473108,0 2.238009,-1.7848 2.294706,-5.3543 m -8.116462,-21.5023 2.039739,0 0.46744,-2.5921 c 0.538232,-2.9463 2.223848,-4.2353 5.056854,-3.867 2.209678,0.028 3.300371,0.4108 3.272082,1.1473 -0.0567,0.7083 -1.189887,1.0482 -3.399566,1.0199 -1.52984,-0.1983 -2.450554,0.34 -2.762147,1.6148 l -0.339956,2.6771 c 1.246472,0.028 2.521308,0.1134 3.824511,0.255 2.068029,0.34 3.102063,0.8782 3.102103,1.6148 -4e-5,0.7083 -1.034074,0.9066 -3.102103,0.5949 -1.303203,-0.1699 -3.342941,-0.2691 -6.119218,-0.2974 l 0,2.9321 3.654533,0.2124 c 3.201219,0.085 4.660198,2.0115 4.376941,5.7793 0.08495,4.2778 0.08495,8.8672 0,13.7683 -4e-5,2.4363 -1.359865,3.8103 -4.079479,4.1219 -3.456257,-0.057 -6.544193,-0.057 -9.263816,0 -3.597896,0.1417 -5.453491,-1.289 -5.566789,-4.2919 -0.169998,-4.7877 -0.169998,-9.3347 0,-13.6408 0.05664,-4.0228 1.898068,-5.935 5.524294,-5.7368 l 3.314577,-0.2124 0,-2.9321 c -2.69135,0.028 -4.830241,0.099 -6.41668,0.2124 -2.181409,0.2267 -3.272102,-0.028 -3.272082,-0.7649 -2e-5,-0.7082 1.090673,-1.1756 3.272082,-1.4023 1.586439,-0.1133 2.974593,-0.1841 4.164468,-0.2125 l -0.382452,-2.6771 c -0.311653,-1.2748 -1.614819,-1.7989 -3.9095,-1.5723 -1.728134,0.028 -2.606354,-0.3116 -2.634663,-1.0199 -0.05668,-0.7365 0.793211,-1.119 2.549674,-1.1474 4.022792,-0.3965 6.090859,0.8783 6.204207,3.8246 l 0.424946,2.5921"
         style="text-align:start;writing-mode:tb-rl;text-anchor:start"
         id="path2989" />
    </g>
    <g
       transform="matrix(1.0704507,0,0,0.92596004,0.0099684,0)"
       style="font-size:44.15718079px;font-style:normal;font-variant:normal;font-weight:normal;font-stretch:normal;text-align:center;text-anchor:middle;fill:#000000;fill-opacity:1;stroke:none;font-family:HakusyuTensyoKyokan;-inkscape-font-specification:HakusyuTensyoKyokan"
       id="text2831-2-1">
      <path
         d="m 18.340277,1111.3764 c -0.02877,6.8709 -0.574983,13.6986 -1.638645,20.4831 -0.344997,2.2424 -0.891211,3.3635 -1.638645,3.3636 -0.718721,-10e-5 -0.919958,-1.1212 -0.603712,-3.3636 1.264901,-11.9017 1.724872,-23.7891 1.379912,-35.6621 -1.8e-5,-2.0698 0.373708,-3.1047 1.121178,-3.1048 0.747433,10e-5 1.121159,1.035 1.121179,3.1048 l 0,5.2178 c 3.593497,-0.1437 6.655173,-0.1581 9.185038,-0.043 -0.172518,-1.6674 -0.230014,-3.6366 -0.172489,-5.9078 -0.08627,-2.4723 0.258704,-3.7372 1.034934,-3.7947 0.747422,0.029 1.106773,1.2362 1.078057,3.6222 l -0.04312,1.7249 5.778381,-0.043 c 1.149889,0 1.652981,-0.5174 1.509279,-1.5524 0.114954,-1.9261 0.531802,-2.8891 1.250545,-2.8892 0.747412,10e-5 1.049267,1.1212 0.905567,3.3636 -0.258774,2.4436 -1.581188,3.536 -3.967246,3.2773 l -5.260914,0.043 0.129366,2.1992 c 1.839849,0 3.765974,0.072 5.778381,0.2156 2.213569,0.2013 3.320373,0.6613 3.320413,1.3799 -0.08629,0.7188 -1.135592,1.0062 -3.147924,0.8625 -2.357384,-0.23 -4.297884,-0.3306 -5.821503,-0.3019 0.574931,3.9098 1.336756,6.8565 2.285479,8.8401 1.293632,-1.3512 2.414809,-2.3861 3.363535,-3.1048 1.149888,-1.0637 1.940462,-1.2937 2.371724,-0.69 0.488678,0.6613 -0.158155,1.6387 -1.940501,2.9323 -1.063719,0.8625 -1.940537,1.8831 -2.630457,3.0617 1.322379,2.3574 2.659167,4.2979 4.010369,5.8215 1.437367,1.7824 1.839841,2.918 1.207423,3.4067 -0.603752,0.3737 -1.581188,-0.2588 -2.932313,-1.8974 -1.121215,-1.1787 -2.256766,-2.8604 -3.406658,-5.0453 -1.2937,5.6921 0.560555,10.7518 5.56277,15.179 1.379871,1.4374 1.753597,2.3717 1.121179,2.803 -0.689997,0.3449 -1.782426,-0.3881 -3.277291,-2.1993 -5.692169,-5.1171 -7.28769,-11.2117 -4.78657,-18.2838 -1.466187,-2.2136 -2.544242,-5.879 -3.234168,-10.9962 -2.874843,-0.029 -5.879023,0.014 -9.01255,0.1294 l 0,5.6059 c 2.414823,-0.086 4.513437,-0.086 6.295848,0 2.098587,0.23 3.147894,0.7187 3.147924,1.4661 -3e-5,0.7188 -1.236199,0.9488 -3.708513,0.69 l 0,20.2675 c 0.08622,2.1561 -0.258759,3.2341 -1.034934,3.2341 -0.718728,0 -1.106828,-1.078 -1.1643,-3.2341 l 0,-20.2675 -3.536025,0.086 m -11.5998841,-12.721 c -8.9e-6,-2.0411 0.3737168,-3.0617 1.1211784,-3.0617 0.7186933,0 1.078045,1.0925 1.0780562,3.2773 l 0,12.8935 1.6817675,0.1294 c 2.213594,0.2013 3.320397,0.6612 3.320413,1.3799 -1.6e-5,0.7475 -1.106819,1.035 -3.320413,0.8625 l -1.6817675,-0.1725 0,12.2898 1.7680125,0.345 c 2.213593,0.3162 3.320396,0.8481 3.320413,1.5955 -1.7e-5,0.7475 -1.10682,0.9487 -3.320413,0.6037 -1.8973903,-0.4312 -4.0678745,-0.4312 -6.5114596,0 -2.0986204,0.3738 -3.1479273,0.1869 -3.1479241,-0.5606 -3.2e-6,-0.7187 1.0493037,-1.2649 3.1479241,-1.6386 l 2.5442125,-0.345 0,-12.2898 -1.5955231,0.1725 c -2.2136138,0.1725 -3.3204171,-0.115 -3.320413,-0.8625 -4.1e-6,-0.7187 1.1067992,-1.1786 3.320413,-1.3799 l 1.5955231,-0.1294 0,-13.1091"
         style="text-align:start;writing-mode:tb-rl;text-anchor:start"
         id="path2983" />
    </g>
    <g
       transform="matrix(1.0875348,0,0,0.92983208,-0.77184265,0)"
       style="font-size:43.86592102px;font-style:normal;font-variant:normal;font-weight:normal;font-stretch:normal;text-align:center;text-anchor:middle;fill:#000000;fill-opacity:1;stroke:none;font-family:HakusyuTensyoKyokan;-inkscape-font-specification:HakusyuTensyoKyokan"
       id="text2831-2-5-1">
      <path
         d="m 59.982378,1092.946 c 4.655015,-0.257 8.995909,-0.2713 13.022695,-0.043 0.256991,-2.1704 -0.471251,-3.2842 -2.184728,-3.3413 -2.541741,-0.2284 -5.340476,-0.2427 -8.396212,-0.043 -1.82777,0.057 -2.641687,1.1994 -2.441755,3.427 m 13.022695,2.1847 c -4.055344,-0.1999 -8.410518,-0.1999 -13.065533,0 -0.371283,2.3989 0.514031,3.527 2.655945,3.3842 2.827267,-0.086 5.483209,-0.071 7.967833,0.043 1.884829,0.2285 2.698746,-0.9138 2.441755,-3.427 m 2.570269,-3.427 c 0.142754,1.8563 0.128475,3.3842 -0.04284,4.5836 0.02852,2.9416 -1.31373,4.4266 -4.026754,4.4552 -3.112912,-0.029 -6.468538,-0.043 -10.066886,-0.043 -2.313264,-0.1142 -3.612676,-1.5992 -3.898241,-4.4551 -0.228489,-1.2851 -0.242768,-2.813 -0.04284,-4.5837 -2e-5,-2.8272 1.827724,-4.2837 5.48324,-4.3694 2.684475,-0.057 5.111948,-0.029 7.282428,0.086 3.541223,0.057 5.311851,1.4993 5.311889,4.3266 m -28.058768,-0.2999 c -1e-5,-2.0276 0.356971,-3.0414 1.070946,-3.0415 0.74251,10e-5 1.11377,1.0996 1.113783,3.2985 l 0,10.2383 2.527431,0.1713 c 2.170432,0.1714 3.255655,0.6283 3.255674,1.3708 -1.9e-5,0.714 -1.085242,0.9853 -3.255674,0.814 l -2.527431,-0.1714 0,12.2516 3.341349,0.2999 c 2.19899,0.3427 3.298493,0.871 3.298512,1.585 -1.9e-5,0.7425 -1.099522,0.9424 -3.298512,0.5997 -2.970101,-0.4284 -5.968745,-0.4284 -8.995941,0 -2.341805,0.2285 -3.512704,-0.014 -3.5127,-0.7282 -4e-6,-0.7425 1.170895,-1.228 3.5127,-1.4565 l 3.469863,-0.2999 0,-12.2516 -2.527431,0.1714 c -2.199013,0.1713 -3.298516,-0.1 -3.298511,-0.814 -5e-6,-0.7425 1.099498,-1.1994 3.298511,-1.3708 l 2.527431,-0.1713 0,-10.4953 m 17.520666,13.9651 -5.311889,0.086 c -2.199028,0.1999 -3.298531,-0.071 -3.298512,-0.8139 -1.9e-5,-0.7425 1.099484,-1.1994 3.298512,-1.3708 5.254744,-0.257 10.13825,-0.257 14.650532,0 2.198969,0.1714 3.298472,0.6283 3.298512,1.3708 -4e-5,0.7425 -1.099543,1.0138 -3.298512,0.8139 l -5.86878,-0.086 -2.141891,2.0991 c 2.256094,0.8853 4.555054,2.0277 6.896888,3.427 5.197614,2.5132 5.968694,6.2401 2.313242,11.1807 -1.742108,3.0272 -4.226698,5.5118 -7.453779,7.4538 -1.827776,0.971 -2.955837,1.1994 -3.384188,0.6854 -0.571197,-0.5998 0.228441,-1.4422 2.398918,-2.5275 2.227534,-1.3708 4.326585,-3.5555 6.297158,-6.5541 2.77014,-3.6841 2.784419,-6.0402 0.04284,-7.0683 -3.255707,5.1977 -7.925024,9.8956 -14.007965,14.0937 -2.084793,1.4279 -3.427044,1.8848 -4.026754,1.3708 -0.54263,-0.5141 0.271287,-1.4422 2.441755,-2.7845 6.054384,-4.1981 10.595188,-8.7675 13.622425,-13.7081 l -2.441756,-1.6707 c -3.598404,5.0835 -8.324838,9.3244 -14.179316,12.7229 -1.884879,1.2565 -3.098616,1.6278 -3.641214,1.1137 -0.599743,-0.4854 0.08566,-1.3279 2.056215,-2.5274 5.197634,-2.9129 9.88123,-7.0254 14.050803,-12.3373 l -2.74162,-1.1994 c -1.742097,1.8277 -4.155291,3.527 -7.239591,5.0977 -1.827765,0.971 -2.927267,1.1138 -3.298511,0.4283 -0.314161,-0.5426 0.328406,-1.2708 1.927701,-2.1847 3.569796,-1.8277 6.582719,-4.1981 9.038779,-7.1111"
         style="text-align:start;writing-mode:tb-rl;text-anchor:start"
         id="path2986" />
    </g>
  </g>
</svg>
