<?xml version="1.0" encoding="UTF-8" standalone="no"?>
<!-- Created with Inkscape (http://www.inkscape.org/) -->

<svg
   xmlns:dc="http://purl.org/dc/elements/1.1/"
   xmlns:cc="http://creativecommons.org/ns#"
   xmlns:rdf="http://www.w3.org/1999/02/22-rdf-syntax-ns#"
   xmlns:svg="http://www.w3.org/2000/svg"
   xmlns="http://www.w3.org/2000/svg"
   xmlns:sodipodi="http://sodipodi.sourceforge.net/DTD/sodipodi-0.dtd"
   xmlns:inkscape="http://www.inkscape.org/namespaces/inkscape"
   width="85.039368"
   height="85.037689"
   id="svg2"
   version="1.1"
   inkscape:version="0.47 r22583"
   sodipodi:docname="sanshinkai-aikido-square-yin-HakusyuInsoutaiKyo.svg"
   inkscape:export-filename="sanshinkai-aikido-square-yin-HakusyuInsoutaiKyo.png"
   inkscape:export-xdpi="2400.2998"
   inkscape:export-ydpi="2400.2998">
  <defs
     id="defs4">
    <inkscape:perspective
       sodipodi:type="inkscape:persp3d"
       inkscape:vp_x="0 : 526.18109 : 1"
       inkscape:vp_y="0 : 1000 : 0"
       inkscape:vp_z="744.09448 : 526.18109 : 1"
       inkscape:persp3d-origin="372.04724 : 350.78739 : 1"
       id="perspective10" />
    <inkscape:perspective
       id="perspective2862"
       inkscape:persp3d-origin="0.5 : 0.33333333 : 1"
       inkscape:vp_z="1 : 0.5 : 1"
       inkscape:vp_y="0 : 1000 : 0"
       inkscape:vp_x="0 : 0.5 : 1"
       sodipodi:type="inkscape:persp3d" />
    <inkscape:perspective
       id="perspective2902"
       inkscape:persp3d-origin="0.5 : 0.33333333 : 1"
       inkscape:vp_z="1 : 0.5 : 1"
       inkscape:vp_y="0 : 1000 : 0"
       inkscape:vp_x="0 : 0.5 : 1"
       sodipodi:type="inkscape:persp3d" />
    <inkscape:perspective
       id="perspective3110"
       inkscape:persp3d-origin="0.5 : 0.33333333 : 1"
       inkscape:vp_z="1 : 0.5 : 1"
       inkscape:vp_y="0 : 1000 : 0"
       inkscape:vp_x="0 : 0.5 : 1"
       sodipodi:type="inkscape:persp3d" />
    <inkscape:perspective
       id="perspective2859"
       inkscape:persp3d-origin="0.5 : 0.33333333 : 1"
       inkscape:vp_z="1 : 0.5 : 1"
       inkscape:vp_y="0 : 1000 : 0"
       inkscape:vp_x="0 : 0.5 : 1"
       sodipodi:type="inkscape:persp3d" />
    <inkscape:perspective
       id="perspective2863"
       inkscape:persp3d-origin="0.5 : 0.33333333 : 1"
       inkscape:vp_z="1 : 0.5 : 1"
       inkscape:vp_y="0 : 1000 : 0"
       inkscape:vp_x="0 : 0.5 : 1"
       sodipodi:type="inkscape:persp3d" />
    <inkscape:perspective
       id="perspective2899"
       inkscape:persp3d-origin="0.5 : 0.33333333 : 1"
       inkscape:vp_z="1 : 0.5 : 1"
       inkscape:vp_y="0 : 1000 : 0"
       inkscape:vp_x="0 : 0.5 : 1"
       sodipodi:type="inkscape:persp3d" />
    <inkscape:perspective
       id="perspective2924"
       inkscape:persp3d-origin="0.5 : 0.33333333 : 1"
       inkscape:vp_z="1 : 0.5 : 1"
       inkscape:vp_y="0 : 1000 : 0"
       inkscape:vp_x="0 : 0.5 : 1"
       sodipodi:type="inkscape:persp3d" />
    <inkscape:perspective
       id="perspective3656"
       inkscape:persp3d-origin="0.5 : 0.33333333 : 1"
       inkscape:vp_z="1 : 0.5 : 1"
       inkscape:vp_y="0 : 1000 : 0"
       inkscape:vp_x="0 : 0.5 : 1"
       sodipodi:type="inkscape:persp3d" />
    <inkscape:perspective
       id="perspective2833"
       inkscape:persp3d-origin="0.5 : 0.33333333 : 1"
       inkscape:vp_z="1 : 0.5 : 1"
       inkscape:vp_y="0 : 1000 : 0"
       inkscape:vp_x="0 : 0.5 : 1"
       sodipodi:type="inkscape:persp3d" />
  </defs>
  <sodipodi:namedview
     id="base"
     pagecolor="#ffffff"
     bordercolor="#666666"
     borderopacity="1.0"
     inkscape:pageopacity="0"
     inkscape:pageshadow="2"
     inkscape:zoom="7.0792139"
     inkscape:cx="42.519666"
     inkscape:cy="42.518791"
     inkscape:document-units="pc"
     inkscape:current-layer="layer1"
     showgrid="false"
     inkscape:window-width="1280"
     inkscape:window-height="750"
     inkscape:window-x="0"
     inkscape:window-y="26"
     inkscape:window-maximized="1"
     units="mm"
     inkscape:showpageshadow="false"
     showborder="false" />
  <metadata
     id="metadata7">
    <rdf:RDF>
      <cc:Work
         rdf:about="">
        <dc:format>image/svg+xml</dc:format>
        <dc:type
           rdf:resource="http://purl.org/dc/dcmitype/StillImage" />
        <dc:title />
      </cc:Work>
    </rdf:RDF>
  </metadata>
  <g
     inkscape:label="Layer 1"
     inkscape:groupmode="layer"
     id="layer1"
     transform="translate(3.4272669e-6,-967.32447)">
    <g
       id="g3641">
      <path
         id="rect3646"
         d="m 1.8448098,967.8266 81.3497402,0 c 0.743856,0 1.342701,0.59884 1.342701,1.3427 l 0,81.3481 c 0,0.7438 -0.598845,1.3427 -1.342701,1.3427 l -81.3497402,0 c -0.743856,0 -1.34270027,-0.5989 -1.34270027,-1.3427 l 0,-81.3481 c 0,-0.74386 0.59884427,-1.3427 1.34270027,-1.3427 z"
         style="color:#000000;fill:#000000;fill-opacity:1;stroke:#000000;stroke-width:1.00422597;stroke-linecap:butt;stroke-linejoin:round;stroke-miterlimit:4;stroke-dashoffset:0;stroke-opacity:1;marker:none;visibility:visible;display:inline;overflow:visible;enable-background:accumulate" />
      <g
         id="text2862-7"
         style="font-size:36.13060379px;font-style:normal;font-variant:normal;font-weight:normal;font-stretch:normal;text-align:center;writing-mode:tb-rl;text-anchor:middle;fill:#fcffff;fill-opacity:1;stroke:none;font-family:FreeSans;-inkscape-font-specification:FreeSans"
         transform="scale(1.2239332,0.81703803)">
        <path
           id="path3633"
           style="font-size:32.9593277px;text-align:start;text-anchor:start;fill:#fcffff;font-family:HakusyuInsoutaiKyo;-inkscape-font-specification:HakusyuInsoutaiKyo"
           d="m 67.38278,1188.8592 c -3.2e-5,0.2361 -0.05368,0.4721 -0.160934,0.7081 -0.643769,1.3519 -1.630831,2.5213 -2.96119,3.5084 -1.416249,1.0514 -2.832468,1.5772 -4.248663,1.5771 l -16.093422,0 c -1.544976,10e-5 -3.122129,-0.5149 -4.731466,-1.5449 -1.609344,-1.03 -2.671509,-2.2531 -3.186497,-3.6693 -0.06437,-0.1931 -0.09656,-0.3863 -0.09656,-0.5794 -1e-6,-0.4291 0.150204,-0.7939 0.450616,-1.0944 0.321867,-0.3218 0.69738,-0.4827 1.126539,-0.4828 0.68665,10e-5 1.180181,0.3434 1.480595,1.03 0.36478,0.8155 1.051432,1.545 2.059958,2.1887 1.008514,0.6438 1.974119,0.9657 2.896816,0.9656 l 16.093422,0 c 0.836832,10e-5 1.695147,-0.3647 2.574947,-1.0943 0.708083,-0.6223 1.308903,-1.3626 1.802464,-2.2209 0.321838,-0.5793 0.793912,-0.869 1.416221,-0.8691 0.429127,10e-5 0.79391,0.161 1.094352,0.4828 0.321837,0.3005 0.482771,0.6653 0.482803,1.0944 m -4.506158,13.8403 c -2.8e-5,0.4507 -0.160962,0.8369 -0.482803,1.1588 -0.300437,0.3004 -0.665221,0.4506 -1.094352,0.4506 l -19.312106,0 c -0.429165,0 -0.804678,-0.1502 -1.12654,-0.4506 -0.300416,-0.3219 -0.450621,-0.7081 -0.450616,-1.1588 -5e-6,-0.4291 0.1502,-0.7939 0.450616,-1.0943 0.321862,-0.3219 0.697375,-0.4828 1.12654,-0.4828 l 19.312106,0 c 0.429131,0 0.793915,0.1609 1.094352,0.4828 0.321841,0.3004 0.482775,0.6652 0.482803,1.0943 m 4.506158,14.4841 c -3.2e-5,0.4292 -0.160966,0.794 -0.482803,1.0944 -0.300442,0.3218 -0.665225,0.4828 -1.094352,0.4828 -0.493562,0 -0.911991,-0.2039 -1.255287,-0.6116 -0.987092,-1.1372 -1.931238,-1.9526 -2.832442,-2.4462 -1.008547,-0.5364 -2.220917,-0.8046 -3.637114,-0.8046 l -13.196606,0 c -2.31746,0 -4.355958,1.0836 -6.1155,3.2508 -0.364787,0.4077 -0.793945,0.6116 -1.287474,0.6116 -0.429159,0 -0.804672,-0.161 -1.126539,-0.4828 -0.300412,-0.3004 -0.450617,-0.6652 -0.450616,-1.0944 -1e-6,-0.3433 0.107289,-0.6652 0.321869,-0.9656 0.987061,-1.3947 2.242346,-2.4891 3.76586,-3.283 1.544962,-0.794 3.175761,-1.191 4.8924,-1.191 l 13.196606,0 c 3.798021,0 6.791394,1.4914 8.98013,4.474 0.214546,0.3004 0.321836,0.6223 0.321868,0.9656" />
        <path
           id="path3635"
           style="font-size:32.9593277px;text-align:start;text-anchor:start;fill:#fcffff;font-family:HakusyuInsoutaiKyo;-inkscape-font-specification:HakusyuInsoutaiKyo"
           d="m 67.414967,1250.2073 c -3.2e-5,0.4292 -0.160966,0.794 -0.482803,1.0944 -0.300442,0.3218 -0.665226,0.4828 -1.094352,0.4828 -0.472104,0 -0.879804,-0.1824 -1.223101,-0.5472 -0.90126,-1.0085 -1.813219,-1.663 -2.735881,-1.9634 -0.751053,-0.2575 -1.899049,-0.3862 -3.443992,-0.3862 l -6.759238,0 c -0.08585,0 -0.311155,-0.043 -0.675923,-0.1288 -0.343342,-0.086 -0.858331,-0.2467 -1.544969,-0.4828 -1.995596,-1.0085 -3.154322,-3.2723 -3.476179,-6.7914 -1.716641,0.9871 -3.250879,1.4806 -4.602719,1.4806 -1.931214,0 -3.368892,-0.8261 -4.313037,-2.4784 -0.772485,-1.3304 -1.158727,-3.0363 -1.158726,-5.1177 -10e-7,-1.9741 0.686651,-3.562 2.059958,-4.7637 0.922686,-0.7939 2.49984,-1.5986 4.731466,-2.414 1.008513,-0.3647 2.124322,-0.8475 3.347432,-1.4484 0.150194,-0.1502 0.225297,-0.3862 0.225308,-0.7081 -1.1e-5,-0.7295 -0.289693,-1.3518 -0.869045,-1.8668 -0.493541,-0.4292 -1.126549,-0.6974 -1.899024,-0.8047 -0.965613,-0.1502 -1.448415,-0.6866 -1.448408,-1.6093 -7e-6,-0.4292 0.150198,-0.794 0.450616,-1.0944 0.321861,-0.3218 0.697374,-0.4828 1.12654,-0.4828 1.5235,0 2.864617,0.6008 4.023355,1.8025 1.180171,1.1802 1.770262,2.532 1.770276,4.0555 -1.4e-5,1.7596 -0.890516,3.09 -2.671508,3.9912 -1.673725,0.6223 -3.336711,1.2553 -4.98896,1.899 -1.781011,0.794 -2.671512,1.9312 -2.671508,3.4118 -4e-6,2.9827 0.76175,4.474 2.285265,4.474 1.029972,0 2.542752,-0.6867 4.538345,-2.06 0.0429,-1.9526 0.268213,-3.6585 0.675924,-5.1177 0.236025,-0.7939 0.751014,-1.1909 1.544969,-1.1909 0.429144,0 0.793928,0.1609 1.094352,0.4828 0.321854,0.3004 0.482788,0.6652 0.482803,1.0944 -1.5e-5,0.3648 -0.06439,0.8797 -0.193121,1.5449 -0.171677,0.7725 -0.268238,1.2875 -0.289682,1.545 -0.107303,0.9656 -0.160948,2.0814 -0.160934,3.3474 -1.4e-5,3.8195 0.761741,5.858 2.285266,6.1155 1.502035,-0.2575 2.253061,-2.296 2.253079,-6.1155 -1.8e-5,-2.3174 -0.193139,-4.3345 -0.579363,-6.0511 -0.04293,-0.1287 -0.06439,-0.2575 -0.06437,-0.3862 -1.8e-5,-0.4292 0.160916,-0.794 0.482803,-1.0944 0.32185,-0.3219 0.697362,-0.4828 1.126539,-0.4828 0.793922,0 1.308911,0.397 1.544969,1.1909 0.407678,1.4806 0.632986,3.2294 0.675923,5.2465 1.995561,1.3733 3.508341,2.0599 4.538345,2.0599 1.523483,0 2.285238,-1.4913 2.285266,-4.4739 -2.8e-5,-1.4806 -0.89053,-2.6179 -2.671508,-3.4119 -1.67374,-0.6437 -3.336725,-1.2767 -4.98896,-1.899 -1.802483,-0.9226 -2.703713,-2.2638 -2.703695,-4.0233 -1.8e-5,-1.545 0.579344,-2.9183 1.738089,-4.1199 1.180164,-1.2231 2.542739,-1.8347 4.087729,-1.8347 0.429134,0 0.793918,0.161 1.094353,0.4828 0.321843,0.3004 0.482777,0.6652 0.482803,1.0944 -2.6e-5,0.9227 -0.482828,1.4591 -1.448408,1.6093 -0.772508,0.1073 -1.426973,0.4077 -1.963398,0.9012 -0.536469,0.4936 -0.804692,1.1266 -0.804671,1.8991 -2.1e-5,0.3004 0.07508,0.5364 0.225308,0.7081 0.193099,0.2575 0.976312,0.6115 2.34964,1.0621 1.544943,0.5365 2.413987,0.8584 2.607134,0.9656 3.454691,1.2875 5.18205,3.4762 5.182082,6.5662 -3.2e-5,2.0814 -0.386274,3.798 -1.158727,5.1498 -0.944176,1.6523 -2.381854,2.4784 -4.313037,2.4784 -1.37333,0 -2.918297,-0.5042 -4.634905,-1.5127 -0.150227,1.6522 -0.504282,3.0362 -1.062166,4.1521 3.132829,0 5.214243,0.096 6.244248,0.2896 2.167218,0.4507 3.894577,1.5021 5.182082,3.1543 0.236004,0.3219 0.354023,0.6652 0.354055,1.03" />
        <path
           id="path3637"
           style="font-size:32.9593277px;text-align:start;text-anchor:start;fill:#fcffff;font-family:HakusyuInsoutaiKyo;-inkscape-font-specification:HakusyuInsoutaiKyo"
           d="m 67.38278,1283.1023 c -3.2e-5,0.4291 -0.160966,0.7939 -0.482803,1.0943 -0.300442,0.3219 -0.665225,0.4828 -1.094352,0.4828 -0.300441,0 -0.600851,-0.086 -0.901232,-0.2575 -1.330418,-0.8154 -2.242378,-1.8883 -2.735882,-3.2186 -0.364811,-0.9871 -0.547202,-2.3926 -0.547176,-4.2165 -0.922715,-1.3304 -1.87759,-1.9956 -2.864629,-1.9956 -1.051459,0 -1.705925,0.5686 -1.963398,1.7059 -0.407721,1.781 -1.115831,3.208 -2.124331,4.2808 -1.158745,1.2231 -2.596422,1.8347 -4.313037,1.8347 -1.544982,0 -2.864642,-0.515 -3.958982,-1.545 -1.094363,-1.0514 -1.641539,-2.3389 -1.641529,-3.8624 -10e-6,-1.1373 0.257485,-2.1029 0.772484,-2.8968 0.214569,-0.3433 0.751016,-0.9549 1.609342,-1.8347 0.729556,-0.7295 1.233816,-1.4376 1.512782,-2.1243 l -7.016732,0 0,6.7592 c -6e-6,1.6952 -0.193127,3.0471 -0.579363,4.0556 -0.514995,1.266 -1.416226,2.2852 -2.703695,3.0577 -0.278955,0.1717 -0.568637,0.2575 -0.869045,0.2575 -0.429159,0 -0.804672,-0.1609 -1.126539,-0.4828 -0.300412,-0.3004 -0.450617,-0.6652 -0.450616,-1.0943 -10e-7,-0.4936 0.214578,-0.912 0.643737,-1.2553 0.643735,-0.4935 1.062163,-0.9012 1.255287,-1.2231 0.450613,-0.7296 0.67592,-1.8347 0.675924,-3.3153 l 0,-17.3809 c -4e-6,-0.7295 -0.429161,-1.6522 -1.287474,-2.768 -0.858317,-1.1373 -1.287475,-1.9312 -1.287474,-2.3818 -10e-7,-0.4292 0.150204,-0.794 0.450616,-1.0944 0.321867,-0.3218 0.69738,-0.4828 1.126539,-0.4828 0.665192,0 1.416218,0.6438 2.253079,1.9312 0.858311,1.2875 1.609336,1.9312 2.25308,1.9312 l 6.437368,0 c 0.364771,0 0.729555,-0.2789 1.094353,-0.8368 0.364769,-0.5794 0.547161,-1.0729 0.547176,-1.4806 -1.5e-5,-0.4077 0.15019,-0.7618 0.450616,-1.0622 0.321853,-0.3218 0.697366,-0.4828 1.12654,-0.4828 0.429141,0 0.793924,0.161 1.094352,0.4828 0.321851,0.3004 0.482785,0.6545 0.482803,1.0622 -1.8e-5,0.4077 0.182374,0.9012 0.547176,1.4806 0.364765,0.5579 0.729549,0.8368 1.094353,0.8368 l 6.437369,0 c 0.64371,0 1.384006,-0.6437 2.220892,-1.9312 0.836829,-1.2874 1.598583,-1.9312 2.285266,-1.9312 0.429127,0 0.79391,0.161 1.094352,0.4828 0.321837,0.3004 0.482771,0.6652 0.482803,1.0944 -3.2e-5,0.4506 -0.42919,1.2445 -1.287474,2.3818 -0.858346,1.1158 -1.287503,2.0385 -1.287473,2.768 l 0,17.3809 c -3e-5,1.4806 0.225278,2.5857 0.675923,3.3153 0.193091,0.3219 0.60079,0.7296 1.2231,1.2231 0.450584,0.3433 0.675892,0.7617 0.675924,1.2553 m -5.761445,-20.8893 0,-1.9956 c -0.686678,0.064 -1.48062,0.097 -2.381826,0.097 -0.472098,0 -1.201665,-0.011 -2.188706,-0.032 -0.965626,-0.021 -1.695194,-0.032 -2.188705,-0.032 -1.201661,0 -2.274554,-0.5364 -3.218684,-1.6093 -0.944163,1.0729 -2.017057,1.6093 -3.218685,1.6093 0.236024,0 -0.901244,0.011 -3.411805,0.032 -1.41623,0.022 -2.542768,0 -3.379619,-0.064 l 0,1.9956 19.98803,0 m 0,5.1499 0,-1.9634 -19.98803,0 0,1.9634 19.98803,0 m 0,5.2143 0,-2.0278 -9.68824,0 c -0.17168,1.0729 -0.901247,2.3497 -2.188705,3.8302 -1.223114,1.3734 -1.834663,2.3819 -1.83465,3.0256 -1.3e-5,0.6437 0.236024,1.1802 0.70811,1.6093 0.493518,0.4077 1.072881,0.6116 1.73809,0.6116 1.695157,0 2.800237,-1.148 3.315245,-3.444 0.278934,-1.3304 0.858296,-2.3925 1.738089,-3.1865 0.901211,-0.7939 2.027749,-1.1909 3.379619,-1.1909 0.987038,0 1.931185,0.2575 2.832442,0.7725" />
      </g>
      <g
         id="text2862"
         style="font-size:35.40049362px;font-style:normal;font-variant:normal;font-weight:normal;font-stretch:normal;text-align:center;writing-mode:tb-rl;text-anchor:middle;fill:#ffffff;fill-opacity:1;stroke:none;font-family:FreeSans;-inkscape-font-specification:FreeSans"
         transform="scale(1.2228598,0.81775523)">
        <path
           id="path2854"
           style="font-size:32.93042374px;text-align:start;text-anchor:start;fill:#ffffff;fill-opacity:1;font-family:HakusyuInsoutaiKyo;-inkscape-font-specification:HakusyuInsoutaiKyo"
           d="m 33.645629,1216.1161 c -3.3e-5,0.4288 -0.160826,0.7932 -0.48238,1.0934 -0.300178,0.3216 -0.664642,0.4824 -1.093393,0.4824 -0.428811,0 -0.803995,-0.1501 -1.125551,-0.4502 -1.607959,-1.5222 -2.411924,-4.1378 -2.411896,-7.8467 l 0,-5.1454 c -0.664638,0.064 -1.136298,0.1822 -1.41498,0.3537 -0.364489,0.2359 -0.546721,0.6432 -0.546696,1.222 l 0,4.5023 c -2.5e-5,1.3721 -0.289452,2.4869 -0.868283,3.3444 -0.686074,0.9648 -1.67227,1.4472 -2.958593,1.4472 l -9.647585,0 c -1.307794,0 -2.29399,-0.4824 -2.958592,-1.4472 -0.5788636,-0.8575 -0.8682908,-1.9723 -0.868283,-3.3444 l 0,-4.5023 c -7.8e-6,-0.5788 -0.1929594,-0.9861 -0.5788551,-1.222 -0.2572759,-0.1715 -0.7289352,-0.2894 -1.4149792,-0.3537 l 0,3.5053 c -5.8e-6,2.4011 -0.075043,4.0841 -0.2251103,5.0489 -0.3215914,1.908 -1.0397998,3.3873 -2.1546273,4.4379 -0.3215893,0.3001 -0.6967728,0.4502 -1.1255516,0.4502 -0.4287835,0 -0.803967,-0.1608 -1.1255516,-0.4824 -0.300148,-0.3002 -0.4502214,-0.6646 -0.4502207,-1.0934 -7e-7,-0.4073 0.1500727,-0.7825 0.4502207,-1.1255 1.0076345,-1.1363 1.5007328,-3.0122 1.4792964,-5.6278 l 0,-13.8282 c -2.7e-6,-2.7442 0.8789986,-4.588 2.6370066,-5.5313 1.0933865,-0.5788 2.8835477,-0.8897 5.3704891,-0.9326 2.315407,-0.021 3.719666,-0.2358 4.212779,-0.6432 -1.5e-5,-1.4578 0.525242,-2.1867 1.575772,-2.1868 1.050497,10e-5 1.575754,0.729 1.575772,2.1868 0.49308,0.4074 1.897339,0.6218 4.212779,0.6432 2.486908,0.043 4.277069,0.3538 5.370489,0.9326 1.757975,0.9433 2.636976,2.7871 2.637007,5.5313 l 0,12.2203 c -3.1e-5,2.0796 0.03213,3.3445 0.09648,3.7947 0.171483,1.4578 0.632422,2.6048 1.382821,3.441 0.300115,0.343 0.450188,0.7182 0.450221,1.1255 m -5.11322,-15.0502 0,-5.5313 c -2.8e-5,-1.3078 -0.268016,-2.1868 -0.803966,-2.637 -0.471685,-0.3859 -1.382845,-0.5789 -2.733482,-0.5789 -3.473151,0 -5.831447,-0.3859 -7.074896,-1.1577 -1.264921,0.7718 -3.623217,1.1577 -7.074896,1.1577 -1.3506697,0 -2.2725492,0.193 -2.7656409,0.5789 -0.535983,0.4502 -0.8039712,1.3292 -0.8039654,2.637 l 0,5.5313 c 2.186778,0.1715 3.6875123,0.9111 4.5022063,2.2189 l 12.284592,0 c 0.814661,-1.3078 2.304676,-2.0474 4.470048,-2.2189 m -5.145379,9.2617 0,-3.8912 -10.966089,0 0,3.8912 c -1.1e-5,1.0933 0.2251,1.64 0.675331,1.64 l 9.647585,0 c 0.42876,0 0.643151,-0.5467 0.643173,-1.64 m 3.505289,-13.5067 c -2.5e-5,0.4503 -0.160818,0.8362 -0.482379,1.1577 -0.300172,0.3002 -0.664636,0.4503 -1.093393,0.4503 l -14.792964,0 c -0.42879,0 -0.8039737,-0.1501 -1.1255516,-0.4503 -0.3001547,-0.3215 -0.4502281,-0.7074 -0.4502206,-1.1577 -7.5e-6,-0.4287 0.1500659,-0.7932 0.4502206,-1.0934 0.3215779,-0.3215 0.6967616,-0.4823 1.1255516,-0.4823 l 14.792964,0 c 0.428757,0 0.793221,0.1608 1.093393,0.4823 0.321561,0.3002 0.482354,0.6647 0.482379,1.0934" />
        <path
           id="path2856"
           style="font-size:32.93042374px;text-align:start;text-anchor:start;fill:#ffffff;fill-opacity:1;font-family:HakusyuInsoutaiKyo;-inkscape-font-specification:HakusyuInsoutaiKyo"
           d="m 33.324042,1226.8249 c -3.1e-5,0.4503 -0.160824,0.8362 -0.482379,1.1577 -0.300178,0.3002 -0.664642,0.4503 -1.093393,0.4503 -0.257299,0 -0.525287,-0.075 -0.803965,-0.2252 -2.765668,-1.3935 -7.203553,-2.0902 -13.313668,-2.0903 -2.315434,10e-5 -4.512937,0.118 -6.592516,0.3538 -0.514547,0.064 -0.975487,0.097 -1.3828206,0.097 -2.8942809,0 -4.3414172,-1.2006 -4.3414133,-3.6018 -3.9e-6,-0.8147 0.3001429,-1.6508 0.9004413,-2.5084 0.6217278,-0.879 1.3077777,-1.3185 2.0581514,-1.3185 0.4287744,0 0.7932383,0.1608 1.093393,0.4824 0.321578,0.3002 0.4823709,0.6646 0.4823793,1.0934 -8.4e-6,0.4931 -0.2251185,0.9326 -0.675331,1.3185 -0.4502279,0.3645 -0.675338,0.6753 -0.6753309,0.9326 -7.1e-6,0.064 0.010713,0.1501 0.032159,0.2573 0.1929444,0.1072 0.5574084,0.1608 1.093393,0.1608 0.2786995,0 0.6217238,-0.022 1.0290748,-0.064 2.229653,-0.2358 4.57723,-0.3537 7.042738,-0.3537 2.958573,0 5.863565,0.2144 8.714985,0.6432 4.609372,0.686 6.914071,1.758 6.914102,3.2158 m -3.215861,3.2159 c -2.9e-5,0.4288 -0.160822,0.804 -0.48238,1.1255 -0.300174,0.3216 -0.664638,0.4824 -1.093392,0.4824 -0.150101,0 -0.321613,-0.032 -0.514538,-0.096 -2.294006,-0.686 -6.099438,-1.029 -11.416309,-1.029 -1.26492,0 -3.966241,0.1501 -8.1039714,0.4502 l -0.2251104,0.032 c -0.4287879,0.022 -0.8039714,-0.1286 -1.1255515,-0.4502 -0.3001525,-0.3215 -0.4502259,-0.7075 -0.4502207,-1.1577 -5.2e-6,-0.8575 0.450215,-1.3828 1.3506619,-1.5758 1.5436055,-0.3001 4.4271581,-0.4502 8.6506671,-0.4502 6.238751,0 10.34433,0.3859 12.316751,1.1577 0.7289,0.3002 1.093364,0.804 1.093393,1.5115 m 3.537448,18.9736 c -3.3e-5,0.4502 -0.160826,0.8361 -0.48238,1.1577 -0.300178,0.3216 -0.664642,0.4609 -1.093393,0.418 l -0.22511,0 c -4.352159,-0.3215 -6.528223,-2.9586 -6.528199,-7.911 -2.4e-5,-1.5007 0.235806,-3.2694 0.707489,-5.3062 0.107171,-0.4502 0.160769,-0.8146 0.160793,-1.0933 -2.4e-5,-0.2144 -0.03218,-0.3859 -0.09648,-0.5146 -0.278733,-0.4931 -2.37976,-0.7396 -6.303089,-0.7396 -1.179167,0 -2.937169,0.032 -5.274013,0.096 -2.315432,0.043 -4.062715,0.064 -5.2418546,0.064 -4.7166003,0 -7.0748965,-0.7504 -7.0748958,-2.2511 -7e-7,-0.4288 0.1500727,-0.7933 0.4502207,-1.0934 0.3215846,-0.3216 0.6967681,-0.4824 1.1255516,-0.4824 0.1715101,0 0.3644616,0.032 0.5788551,0.096 1.0505109,0.3644 2.7120377,0.5467 4.9845856,0.5467 1.1577004,0 2.8942644,-0.022 5.2096954,-0.064 2.336844,-0.043 4.084127,-0.064 5.241855,-0.064 3.001449,0 5.016721,0.1287 6.04582,0.3859 2.358272,0.5789 3.53742,1.9188 3.537448,4.0199 -2.8e-5,0.5359 -0.08578,1.1577 -0.257269,1.8652 -0.428809,1.7151 -0.6432,3.2265 -0.643173,4.5343 -2.7e-5,1.9081 0.450193,3.2052 1.350662,3.8912 0.300119,0.2358 1.125522,0.536 2.476214,0.9005 0.900409,0.2358 1.350629,0.7503 1.350662,1.5436 m -10.290758,-11.2555 c -2.2e-5,0.9004 -0.471681,1.4257 -1.414979,1.5757 -1.693706,0.3002 -3.19444,0.7397 -4.502206,1.3185 1.007619,0.7933 2.058133,1.8331 3.151544,3.1194 1.414959,1.6294 2.122448,2.8407 2.122469,3.6339 -2.1e-5,0.4288 -0.160814,0.7933 -0.482379,1.0934 -0.300168,0.3216 -0.664632,0.4824 -1.093393,0.4824 -0.621753,0 -1.093412,-0.2894 -1.41498,-0.8683 -1.329239,-2.294 -3.119401,-4.2127 -5.370489,-5.7564 -2.379748,1.5437 -5.0703489,3.9877 -8.071812,7.3322 -0.3430297,0.3859 -0.7503718,0.5789 -1.2220274,0.5789 -0.4287848,0 -0.8039683,-0.1608 -1.1255516,-0.4824 -0.3001493,-0.3002 -0.4502227,-0.6646 -0.4502207,-1.0934 -2e-6,-0.7289 1.1148289,-2.1546 3.3444962,-4.2771 1.7151191,-1.6079 3.2051335,-2.8728 4.4700475,-3.7947 -1.4364264,-0.6432 -3.012197,-1.072 -4.7273165,-1.2864 -0.9862017,-0.1072 -1.4793,-0.6646 -1.4792963,-1.6722 -3.7e-6,-0.4288 0.1715088,-0.7825 0.5145378,-1.0613 0.3430208,-0.2787 0.7289238,-0.418 1.1577103,-0.418 2.1867784,0 4.7380257,0.8254 7.6537507,2.4762 2.980016,-1.6508 5.434788,-2.4762 7.364323,-2.4762 0.428761,0 0.793225,0.1608 1.093393,0.4824 0.321564,0.3001 0.482357,0.6646 0.482379,1.0934" />
        <path
           id="path2858"
           style="font-size:32.93042374px;text-align:start;text-anchor:start;fill:#ffffff;fill-opacity:1;font-family:HakusyuInsoutaiKyo;-inkscape-font-specification:HakusyuInsoutaiKyo"
           d="m 33.774263,1259.4016 c -3.2e-5,0.4502 -0.160825,0.8361 -0.482379,1.1577 -0.300179,0.3002 -0.664643,0.4503 -1.093393,0.4502 l -6.914103,0.032 0,0.6753 c 2.208199,0 3.612457,0.1287 4.212779,0.3859 1.264876,0.4717 1.897328,1.6294 1.897358,3.4732 -3e-5,-0.086 -0.04291,3.0443 -0.128634,9.3903 -3e-5,0.3859 0.342995,0.7396 1.029076,1.0612 0.686019,0.3002 1.029044,0.7825 1.029075,1.4471 -3.1e-5,0.4288 -0.160824,0.804 -0.482379,1.1256 -0.300178,0.3001 -0.664642,0.4502 -1.093393,0.4502 -0.493128,0 -1.018385,-0.1608 -1.575772,-0.4824 -0.536005,-0.343 -0.964786,-0.7289 -1.286345,-1.1577 l -9.744061,0 c -0.192969,0.4717 -0.428798,0.9326 -0.707489,1.3828 l 7.525116,0 c 3.108639,0 5.477655,0.6432 7.107055,1.9296 0.385871,0.3215 0.578822,0.7396 0.578855,1.2542 -3.3e-5,0.4287 -0.160826,0.7932 -0.48238,1.0933 -0.300178,0.3216 -0.664642,0.4824 -1.093393,0.4824 -0.364494,0 -0.6968,-0.1072 -0.996917,-0.3216 -1.136299,-0.8575 -2.840704,-1.2863 -5.11322,-1.2863 l -18.0088253,0 c -1.1791546,0 -2.1331926,-0.4609 -2.8621169,-1.3828 -0.6431754,-0.8362 -0.9647612,-1.8652 -0.9647585,-3.0873 l 0,-7.0749 c -2.7e-6,-0.5359 -0.3215886,-1.0076 -0.9647585,-1.4149 -0.6431734,-0.4074 -0.9647593,-0.9005 -0.9647586,-1.4793 -7e-7,-0.4288 0.1500727,-0.7933 0.4502207,-1.0934 0.3215846,-0.3216 0.6967681,-0.4824 1.1255516,-0.4824 0.2358273,0 0.4716569,0.054 0.7074895,0.1608 1.8651949,0.9219 2.7977939,2.3583 2.7977997,4.3092 l 0,7.0749 c -5.8e-6,0.879 0.2251043,1.3185 0.675331,1.3185 l 0.032159,0 0,-13.3779 -4.3092547,0 c -0.4502224,0 -0.8361254,-0.1501 -1.1577102,-0.4503 -0.3001478,-0.3215 -0.4502212,-0.7074 -0.4502206,-1.1577 -6e-7,-0.4287 0.1500728,-0.7932 0.4502206,-1.0934 0.3215848,-0.3215 0.7074878,-0.4823 1.1577102,-0.4823 5.4240791,0 8.178997,-0.011 8.264764,-0.032 0.04287,-0.1286 0.06431,-0.2894 0.06432,-0.4824 -10e-6,-0.4287 -0.07505,-0.6431 -0.22511,-0.6432 l -8.103971,0 c -0.4502224,1e-4 -0.8361254,-0.15 -1.1577102,-0.4502 -0.3001478,-0.3215 -0.4502212,-0.7074 -0.4502206,-1.1577 -6e-7,-0.4287 0.1500728,-0.7932 0.4502206,-1.0934 0.3215848,-0.3215 0.7074878,-0.4823 1.1577102,-0.4824 l 8.103971,0 c 0.471649,10e-5 0.921869,0.096 1.350662,0.2895 0.278696,-0.193 0.589562,-0.2894 0.9326,-0.2895 l 6.110137,-0.032 c -1.9e-5,-0.2573 -0.03218,-0.6432 -0.09648,-1.1577 -0.150092,-0.021 -0.353763,-0.032 -0.611013,-0.032 -1.865216,0 -3.440987,-0.3215 -4.727317,-0.9647 -0.857576,0.6217 -1.768736,0.9969 -2.733483,1.1255 -0.278718,0.022 -1.307793,0.032 -3.0872264,0.032 l -5.1453787,0.032 c -0.4287835,10e-5 -0.803967,-0.15 -1.1255516,-0.4502 -0.300148,-0.3216 -0.4502214,-0.7075 -0.4502207,-1.1577 -7e-7,-0.4288 0.1500727,-0.7932 0.4502207,-1.0934 0.3215846,-0.3216 0.6967681,-0.4823 1.1255516,-0.4824 l 7.9110191,-0.032 c 0.407332,0 0.889711,-0.268 1.447138,-0.804 0.557404,-0.5359 1.039783,-0.8039 1.447138,-0.804 0.300133,10e-5 0.653878,0.1394 1.061234,0.4181 0.493084,0.3431 0.878987,0.5574 1.15771,0.6432 0.79323,0.2358 1.682951,0.3537 2.669166,0.3537 1.457837,0 2.486912,0.3859 3.087227,1.1577 0.514516,0.6647 0.782504,1.7366 0.803965,3.2159 0.04286,0 0.107174,0 0.192952,0 0.08573,-0.021 0.139332,-0.032 0.160793,-0.032 0.04286,10e-5 0.09645,0.011 0.160793,0.032 0.08573,0 0.150051,0 0.192952,0 0.02142,-1.4793 0.289404,-2.5512 0.803965,-3.2159 0.60027,-0.7718 1.629345,-1.1577 3.087227,-1.1577 1.200561,0 2.111721,-0.2251 2.733483,-0.6753 0.621703,-0.4716 1.082643,-0.7075 1.38282,-0.7075 0.428751,0 0.793215,0.1608 1.093393,0.4824 0.321554,0.3001 0.482347,0.6646 0.48238,1.0934 -3.3e-5,0.4073 -0.150106,0.7718 -0.450221,1.0934 -1.136302,1.2649 -2.883585,1.8973 -5.241855,1.8973 -0.257295,0 -0.460966,0.011 -0.611013,0.032 -0.06434,0.2144 -0.0965,0.6003 -0.09648,1.1577 l 4.952427,-0.032 c 0.42875,10e-5 0.793214,0.1608 1.093393,0.4824 0.321554,0.3002 0.482347,0.6646 0.482379,1.0934 m -5.563441,6.1745 c 0.02141,-0.2573 -2.6e-5,-0.461 -0.06432,-0.6111 -0.107222,-0.043 -0.235856,-0.064 -0.385903,-0.064 l -7.878861,0.032 c -0.02146,0.1286 -0.0429,0.4073 -0.06432,0.8361 l 8.393399,0 0,-0.1929 m -0.03216,3.3766 -8.393399,0 0,1.0934 8.36124,0 0.03216,-1.0934 m -0.06432,4.2771 -8.393399,0 0,0.9969 8.393399,0 0,-0.9969 m -5.981502,-11.5128 0,-0.6753 -7.010579,0.032 c 0.04286,0.2788 0.0643,0.536 0.06432,0.7719 -1.3e-5,2.3797 -1.350674,3.5696 -4.051985,3.5696 l 0,8.7793 c 0.68604,-0.064 1.029065,-0.3645 1.029075,-0.9005 l 0,-3.859 c -10e-6,-1.2435 0.43949,-2.2082 1.318504,-2.8943 0.814672,-0.6217 1.865186,-0.9326 3.151544,-0.9326 0.02142,0 0.03214,-0.011 0.03216,-0.032 0.08574,-2.5727 1.211291,-3.8591 3.376655,-3.8591 l 2.09031,0 m -5.531282,7.0749 c -0.857578,0 -1.286359,0.2144 -1.286345,0.6432 -1.4e-5,0.3216 0.01071,0.7932 0.03216,1.415 0.02142,0.6003 0.03214,1.0398 0.03216,1.3185 -1.4e-5,1.6293 -0.235843,2.7978 -0.707489,3.5053 -0.621746,0.9862 -1.800894,1.565 -3.537448,1.7365 l 0,1.3828 2.926434,0 c 0.128622,-0.1715 0.300134,-0.3215 0.514538,-0.4502 0.771793,-0.4502 1.361367,-1.2863 1.768724,-2.5083 -0.04289,-0.2144 0.02142,-0.4717 0.192951,-0.7719 -1.5e-5,-0.021 0.0107,-1.0397 0.03216,-3.055 l 0.03216,-3.2159" />
      </g>
    </g>
  </g>
</svg>
