<?xml version="1.0" encoding="UTF-8" standalone="no"?>
<!-- Created with Inkscape (http://www.inkscape.org/) -->

<svg
   xmlns:dc="http://purl.org/dc/elements/1.1/"
   xmlns:cc="http://creativecommons.org/ns#"
   xmlns:rdf="http://www.w3.org/1999/02/22-rdf-syntax-ns#"
   xmlns:svg="http://www.w3.org/2000/svg"
   xmlns="http://www.w3.org/2000/svg"
   xmlns:sodipodi="http://sodipodi.sourceforge.net/DTD/sodipodi-0.dtd"
   xmlns:inkscape="http://www.inkscape.org/namespaces/inkscape"
   width="85.039368"
   height="85.039368"
   id="svg2"
   version="1.1"
   inkscape:version="0.48.2 r9819"
   sodipodi:docname="sanshinkai-aikido-square-yang-HakusyuTensyoKyokan.svg"
   inkscape:export-filename="sanshinkai-aikido-square-yang-HakusyuTensyoKyokan.png"
   inkscape:export-xdpi="600.07501"
   inkscape:export-ydpi="600.07501">
  <defs
     id="defs4">
    <inkscape:perspective
       sodipodi:type="inkscape:persp3d"
       inkscape:vp_x="0 : 526.18109 : 1"
       inkscape:vp_y="0 : 1000 : 0"
       inkscape:vp_z="744.09448 : 526.18109 : 1"
       inkscape:persp3d-origin="372.04724 : 350.78739 : 1"
       id="perspective10" />
    <inkscape:perspective
       id="perspective2862"
       inkscape:persp3d-origin="0.5 : 0.33333333 : 1"
       inkscape:vp_z="1 : 0.5 : 1"
       inkscape:vp_y="0 : 1000 : 0"
       inkscape:vp_x="0 : 0.5 : 1"
       sodipodi:type="inkscape:persp3d" />
    <inkscape:perspective
       id="perspective2902"
       inkscape:persp3d-origin="0.5 : 0.33333333 : 1"
       inkscape:vp_z="1 : 0.5 : 1"
       inkscape:vp_y="0 : 1000 : 0"
       inkscape:vp_x="0 : 0.5 : 1"
       sodipodi:type="inkscape:persp3d" />
    <inkscape:perspective
       id="perspective3110"
       inkscape:persp3d-origin="0.5 : 0.33333333 : 1"
       inkscape:vp_z="1 : 0.5 : 1"
       inkscape:vp_y="0 : 1000 : 0"
       inkscape:vp_x="0 : 0.5 : 1"
       sodipodi:type="inkscape:persp3d" />
    <inkscape:perspective
       id="perspective2859"
       inkscape:persp3d-origin="0.5 : 0.33333333 : 1"
       inkscape:vp_z="1 : 0.5 : 1"
       inkscape:vp_y="0 : 1000 : 0"
       inkscape:vp_x="0 : 0.5 : 1"
       sodipodi:type="inkscape:persp3d" />
    <inkscape:perspective
       id="perspective2863"
       inkscape:persp3d-origin="0.5 : 0.33333333 : 1"
       inkscape:vp_z="1 : 0.5 : 1"
       inkscape:vp_y="0 : 1000 : 0"
       inkscape:vp_x="0 : 0.5 : 1"
       sodipodi:type="inkscape:persp3d" />
    <inkscape:perspective
       id="perspective2899"
       inkscape:persp3d-origin="0.5 : 0.33333333 : 1"
       inkscape:vp_z="1 : 0.5 : 1"
       inkscape:vp_y="0 : 1000 : 0"
       inkscape:vp_x="0 : 0.5 : 1"
       sodipodi:type="inkscape:persp3d" />
    <inkscape:perspective
       id="perspective2924"
       inkscape:persp3d-origin="0.5 : 0.33333333 : 1"
       inkscape:vp_z="1 : 0.5 : 1"
       inkscape:vp_y="0 : 1000 : 0"
       inkscape:vp_x="0 : 0.5 : 1"
       sodipodi:type="inkscape:persp3d" />
    <inkscape:perspective
       id="perspective3656"
       inkscape:persp3d-origin="0.5 : 0.33333333 : 1"
       inkscape:vp_z="1 : 0.5 : 1"
       inkscape:vp_y="0 : 1000 : 0"
       inkscape:vp_x="0 : 0.5 : 1"
       sodipodi:type="inkscape:persp3d" />
    <inkscape:perspective
       id="perspective2833"
       inkscape:persp3d-origin="0.5 : 0.33333333 : 1"
       inkscape:vp_z="1 : 0.5 : 1"
       inkscape:vp_y="0 : 1000 : 0"
       inkscape:vp_x="0 : 0.5 : 1"
       sodipodi:type="inkscape:persp3d" />
  </defs>
  <sodipodi:namedview
     id="base"
     pagecolor="#ffffff"
     bordercolor="#666666"
     borderopacity="1.0"
     inkscape:pageopacity="0"
     inkscape:pageshadow="2"
     inkscape:zoom="6.9732409"
     inkscape:cx="42.519684"
     inkscape:cy="42.519684"
     inkscape:document-units="pc"
     inkscape:current-layer="layer1"
     showgrid="false"
     inkscape:window-width="1280"
     inkscape:window-height="747"
     inkscape:window-x="0"
     inkscape:window-y="0"
     inkscape:window-maximized="1"
     units="mm"
     inkscape:showpageshadow="false"
     showborder="false" />
  <metadata
     id="metadata7">
    <rdf:RDF>
      <cc:Work
         rdf:about="">
        <dc:format>image/svg+xml</dc:format>
        <dc:type
           rdf:resource="http://purl.org/dc/dcmitype/StillImage" />
        <dc:title></dc:title>
      </cc:Work>
    </rdf:RDF>
  </metadata>
  <g
     inkscape:label="Layer 1"
     inkscape:groupmode="layer"
     id="layer1"
     transform="translate(3.4272669e-6,-967.32279)">
    <g
       transform="scale(1.2940571,0.77276343)"
       style="font-size:35.77515411px;font-style:normal;font-variant:normal;font-weight:normal;font-stretch:normal;text-align:center;writing-mode:tb-rl;text-anchor:middle;fill:#000000;fill-opacity:1;stroke:none;font-family:FreeSans;-inkscape-font-specification:FreeSans"
       id="text2862">
      <path
         d="m 25.346542,1281.4122 c 0.232885,-1.7701 0.384277,-3.878 0.454176,-6.3235 -5.752926,-0.4426 -11.587345,-0.4426 -17.5032732,0 -0.046591,2.4455 0.093155,4.5534 0.4192401,6.3235 0.2096104,1.5605 1.246064,2.4339 3.1093641,2.6202 3.563525,0.233 7.022252,0.233 10.376192,0 1.816682,-0.1397 2.864782,-1.0131 3.144301,-2.6202 m 0.873417,-21.9402 -5.415185,-0.3145 c -1.537234,-0.046 -2.74837,-0.5356 -3.633414,-1.4673 -0.90837,0.9317 -2.492165,1.4557 -4.751388,1.5721 l -4.4020206,0.2097 c -2.2825358,0.163 -3.5635459,1.7585 -3.8430341,4.7863 -0.3726624,8.3615 -0.4774723,15.6283 -0.3144301,21.8005 -4.5e-6,1.7934 -0.3377254,2.6901 -1.0131635,2.6901 -0.4891165,0 -0.733673,-0.8967 -0.7336702,-2.6901 -0.2096226,-6.2886 -0.1164582,-13.6719 0.2794934,-22.1499 0.27949,-3.9594 2.1194864,-6.0207 5.5199945,-6.1838 5.4966896,0.07 8.2799746,-0.8035 8.3498646,-2.6202 -1.6e-5,-1.2577 0.302768,-1.8866 0.908354,-1.8866 0.582259,0 0.873398,0.6289 0.873417,1.8866 -0.0466,1.9099 2.725039,2.7833 8.314928,2.6202 3.377182,0.2097 5.193887,2.2709 5.450121,6.1838 0.535663,8.478 0.67541,15.8613 0.41924,22.1499 -3.2e-5,1.7934 -0.26788,2.6901 -0.803543,2.6901 -0.628892,0 -0.943321,-0.8967 -0.94329,-2.6901 0.23288,-6.1722 0.08149,-13.439 -0.454177,-21.8005 -0.256233,-2.9813 -1.525597,-4.5767 -3.808097,-4.7863 m -0.698734,6.7777 c -5.566597,-0.2795 -11.063295,-0.2795 -16.49011,0 -1.7934239,0.1397 -2.690131,-0.093 -2.6901239,-0.6988 -7.1e-6,-0.5822 0.8967,-0.9549 2.6901239,-1.1179 5.426815,-0.2562 10.923513,-0.2562 16.49011,0 1.793388,0.163 2.690095,0.5357 2.690124,1.1179 -2.9e-5,0.6056 -0.896736,0.8385 -2.690124,0.6988 m -17.2237802,7.0572 c 5.9159282,-0.4425 11.7503472,-0.4425 17.5032732,0 0.209594,-2.0263 0.593897,-3.0395 1.152911,-3.0395 0.535667,0 0.756933,0.9084 0.663797,2.7251 -0.02332,3.1676 -0.198003,5.9741 -0.524051,8.4197 -0.279521,2.6785 -1.909897,4.0876 -4.891134,4.2273 -3.35394,0.3494 -6.812667,0.3494 -10.376192,0 -3.0278547,-0.163 -4.6465856,-1.5721 -4.8561978,-4.2273 -0.3726651,-2.4456 -0.5240572,-5.2521 -0.4541767,-8.4197 -0.023298,-1.8167 0.2329037,-2.7251 0.7686068,-2.7251 0.5589782,0 0.8966991,1.0132 1.0131635,3.0395"
         style="font-family:HakusyuTensyoKyokan;-inkscape-font-specification:HakusyuTensyoKyokan"
         id="path2845" />
      <path
         d="m 11.651366,1313.7636 c -2.1427934,-1.5373 -4.1691184,-2.8183 -6.0789817,-3.8431 -1.3043075,-0.5357 -1.8400026,-1.083 -1.607087,-1.642 0.3260706,-0.5124 1.1412588,-0.5124 2.4455671,0 2.5154309,1.2111 4.7513756,2.5853 6.7078416,4.1225 1.909856,-1.5605 4.017699,-2.8881 6.323538,-3.9828 1.537192,-0.722 2.468835,-0.7802 2.794934,-0.1746 0.209597,0.559 -0.4542,1.1762 -1.991391,1.8516 -2.003055,0.8152 -3.854696,1.9914 -5.554931,3.5286 2.259221,2.0263 4.553393,4.4486 6.882525,7.2668 1.32757,1.4907 1.793392,2.4572 1.397467,2.8998 -0.442555,0.4891 -1.362553,-0.07 -2.759997,-1.677 -2.375713,-2.7949 -4.681531,-5.1823 -6.917462,-7.162 -2.888109,2.6785 -5.3686107,5.2987 -7.4415113,7.8608 -0.9316503,1.1179 -1.6536742,1.5255 -2.1660738,1.2227 -0.3726619,-0.4192 -0.069878,-1.3159 0.9083535,-2.6901 2.0030287,-2.6319 4.355429,-5.159 7.0572086,-7.5812 m -7.231892,-9.398 c -1.6536727,0.1863 -2.4572154,0 -2.4106305,-0.559 0.046579,-0.6056 0.8967044,-0.9899 2.5503772,-1.1529 6.3584633,-0.7453 12.3442743,-0.7802 17.9574503,-0.1048 3.540223,0.2795 5.566548,1.9099 6.078981,4.8911 0.1863,0.6988 0.221236,1.7236 0.10481,3.0744 -0.09319,1.3276 -0.174712,2.4223 -0.244556,3.2841 -0.04661,0.8385 0.06984,1.9215 0.349366,3.2491 0.279464,1.3043 0.885032,2.7367 1.816707,4.2972 1.117942,1.6304 1.432371,2.5853 0.943291,2.8648 -0.605601,0.2562 -1.490663,-0.4891 -2.655188,-2.2359 -0.931673,-1.6537 -1.548887,-3.156 -1.851643,-4.5069 -0.279521,-1.3508 -0.395977,-2.4572 -0.349367,-3.3189 0.04656,-0.8851 0.116428,-1.9914 0.20962,-3.319 0.116428,-1.3509 0.08149,-2.3641 -0.10481,-3.0395 -0.512432,-2.0729 -1.991416,-3.2375 -4.436958,-3.4937 -5.520012,-0.6521 -11.505822,-0.6288 -17.95745,0.07 m 22.813648,-3.9479 c -6.474952,-1.1412 -13.497216,-1.409 -21.0668143,-0.8035 -1.793421,0.047 -2.6784825,-0.2096 -2.6551872,-0.7686 0.069869,-0.6056 0.9898672,-0.9316 2.7599972,-0.9782 7.5463073,-0.6289 14.5569263,-0.361 21.0318773,0.8035 1.770095,0.2329 2.62022,0.6289 2.550378,1.1879 -3.1e-5,0.5823 -0.873447,0.7686 -2.620251,0.5589 m 2.585314,-5.8344 c 1.630346,0.4426 2.35237,0.955 2.166074,1.5372 -0.186362,0.5358 -1.094714,0.5823 -2.725061,0.1398 -8.268368,-1.5838 -15.372151,-1.9797 -21.3113709,-1.1879 -3.4703815,0.093 -4.6465817,-1.281 -3.5286041,-4.1225 0.4658167,-1.2344 0.9898663,-1.84 1.5721504,-1.8167 0.5822706,0.07 0.6172072,0.7453 0.10481,2.0263 -0.6754485,1.4441 -0.2445633,2.1545 1.2926569,2.1312 7.0571927,-0.9317 14.5336337,-0.5008 22.4293447,1.2926"
         style="font-family:HakusyuTensyoKyokan;-inkscape-font-specification:HakusyuTensyoKyokan"
         id="path2847" />
      <path
         d="m 11.860986,1327.319 c -2.6086154,-0.1863 -5.0075979,-0.1863 -7.1969553,0 -1.7701284,0.163 -2.6551899,-0.058 -2.6551872,-0.6638 -2.7e-6,-0.6056 0.8850588,-0.9782 2.6551872,-1.118 2.1893574,-0.1863 4.5883399,-0.1863 7.1969553,0 1.793401,0.1398 2.690108,0.5124 2.690123,1.118 -1.5e-5,0.6056 -0.896722,0.8268 -2.690123,0.6638 m -7.6161953,15.442 c -0.093169,4.0294 -0.1746882,8.0937 -0.2445568,12.1929 0.1164508,1.5605 1.16455,2.3873 3.1443007,2.4805 l 0.034937,-20.2633 -2.6202506,0.035 c -1.700255,0.1397 -2.5853165,-0.07 -2.6551872,-0.6289 -0.069876,-0.6055 0.7453123,-0.9782 2.4455672,-1.118 2.1893576,-0.023 4.3437837,-0.023 6.4632843,0 1.51391,-0.023 2.282516,-0.7802 2.305821,-2.2709 0.06986,-0.8151 -0.756975,-1.246 -2.480504,-1.2926 -1.9797542,-0.07 -4.0410159,0.012 -6.1837913,0.2445 -1.7002549,0.2097 -2.5853165,0.035 -2.6551872,-0.524 -0.046585,-0.6056 0.7802491,-1.0131 2.4805038,-1.2228 2.259231,-0.2562 4.2389739,-0.3377 5.9392347,-0.2445 2.957958,0.023 4.530106,1.0597 4.716451,3.1093 -0.163053,2.9813 -2.166087,4.2972 -6.009108,3.9479 l 0,14.1144 c 2.142771,0 3.225807,-1.0831 3.249111,-3.2491 -1.3e-5,-2.0264 -0.0233,-3.9944 -0.06987,-5.9043 -0.116468,-1.677 0.116443,-2.5504 0.698734,-2.6203 0.605555,-0.07 0.966567,0.7919 1.083037,2.5853 0.06986,1.7469 0.104795,3.5636 0.10481,5.4502 -1.5e-5,3.6567 -1.688619,5.5316 -5.065818,5.6248 l 0,4.1924 c 4.47188,-0.047 8.62934,-0.035 12.472393,0.035 3.843008,0.093 6.614648,0.3494 8.314928,0.7686 1.909839,0.3494 2.759964,0.9084 2.550377,1.677 -3.3e-5,0.326 -1.164587,0.2795 -3.493667,-0.1398 -0.8618,-0.2096 -2.119519,-0.361 -3.773161,-0.4542 -1.630402,-0.07 -3.400525,-0.1281 -5.310374,-0.1746 -1.886599,-0.023 -3.784823,-0.023 -5.694678,0 -1.886594,0.046 -3.843045,0.082 -5.8693615,0.1048 -4.1691145,0.2795 -6.1721484,-1.2112 -6.009108,-4.4719 0.093162,-4.0527 0.1979715,-8.0471 0.3144301,-11.9833 -3.1e-6,-1.677 0.3027811,-2.5154 0.9083535,-2.5154 0.6055644,0 0.9083486,0.8384 0.9083536,2.5154 m 13.7999863,-2.3757 c 4.332124,-0.2795 8.408066,-0.2795 12.227836,0 0.209589,-2.3291 -0.50079,-3.482 -2.131137,-3.4587 -2.399012,-0.2329 -4.844576,-0.2562 -7.336702,-0.07 -2.072929,0.023 -2.992927,1.1995 -2.759997,3.5286 m 12.227836,5.9043 0,-4.1225 c -3.796479,-0.2562 -7.872421,-0.2562 -12.227836,0 l 0,4.1574 c 4.378707,-0.2562 8.454648,-0.2678 12.227836,-0.035 m 0,1.8866 c -3.726606,-0.2562 -7.802547,-0.2562 -12.227836,0 -0.186348,3.1909 0.815169,4.6582 3.004554,4.402 2.119467,-0.1165 4.565032,-0.1165 7.336701,0 1.211108,0 1.839968,-1.4673 1.886581,-4.402 m -6.672905,-17.678 1.67696,0 0.384304,-2.1311 c 0.442504,-2.4223 1.828324,-3.482 4.157464,-3.1793 1.816675,0.023 2.713382,0.3378 2.690124,0.9433 -0.04662,0.5823 -0.978259,0.8618 -2.794934,0.8385 -1.257749,-0.163 -2.01471,0.2795 -2.270884,1.3276 l -0.279493,2.201 c 1.02478,0.023 2.072879,0.093 3.1443,0.2096 1.700219,0.2796 2.550344,0.7221 2.550378,1.3276 -3.4e-5,0.5823 -0.850159,0.7454 -2.550378,0.4891 -1.071421,-0.1397 -2.74838,-0.2212 -5.030881,-0.2445 l 0,2.4106 3.004554,0.1747 c 2.631865,0.07 3.831356,1.6537 3.598478,4.7514 0.06984,3.517 0.06984,7.2901 0,11.3195 -3.3e-5,2.003 -1.118005,3.1326 -3.353921,3.3888 -2.841543,-0.047 -5.380272,-0.047 -7.616195,0 -2.95799,0.1165 -4.483557,-1.0597 -4.576704,-3.5286 -0.139764,-3.9362 -0.139764,-7.6744 0,-11.2146 0.04657,-3.3074 1.560486,-4.8795 4.541767,-4.7165 l 2.725061,-0.1747 0,-2.4106 c -2.212678,0.023 -3.971156,0.082 -5.275438,0.1747 -1.793433,0.1863 -2.69014,-0.023 -2.690124,-0.6289 -1.6e-5,-0.5822 0.896691,-0.9665 2.690124,-1.1529 1.304282,-0.093 2.445546,-0.1514 3.423794,-0.1747 l -0.31443,-2.201 c -0.256224,-1.0481 -1.327614,-1.4789 -3.214174,-1.2926 -1.420775,0.023 -2.142799,-0.2562 -2.166074,-0.8385 -0.0466,-0.6056 0.652134,-0.92 2.096201,-0.9433 3.307316,-0.3261 5.007566,0.722 5.100754,3.1443 l 0.349367,2.1311"
         style="font-family:HakusyuTensyoKyokan;-inkscape-font-specification:HakusyuTensyoKyokan"
         id="path2849" />
    </g>
    <rect
       style="color:#000000;fill:none;stroke:#000000;stroke-width:1.00424576;stroke-linecap:butt;stroke-linejoin:round;stroke-miterlimit:4;stroke-opacity:1;stroke-dasharray:none;stroke-dashoffset:0;marker:none;visibility:visible;display:inline;overflow:visible;enable-background:accumulate"
       id="rect3646"
       width="84.035118"
       height="84.035118"
       x="0.50211942"
       y="967.82489"
       ry="1.7903653"
       rx="1.7903652" />
    <g
       transform="scale(1.2362773,0.80888002)"
       style="font-size:35.23246384px;font-style:normal;font-variant:normal;font-weight:normal;font-stretch:normal;text-align:center;writing-mode:tb-rl;text-anchor:middle;fill:#000000;fill-opacity:1;stroke:none;font-family:FreeSans;-inkscape-font-specification:FreeSans"
       id="text2862-7">
      <path
         d="m 55.273742,1243.8397 0.139036,3.5802 c 1.390342,0.5562 3.116709,0.9501 5.179108,1.1818 2.479454,0.5098 3.753954,-0.2201 3.823503,-2.1898 0.139006,-3.6149 -1.008044,-5.5962 -3.441152,-5.9438 -1.992882,-0.1622 -3.81194,-0.4403 -5.457181,-0.8342 -2.085567,-0.4634 -2.641713,-2.41 -1.668438,-5.8395 0.648816,-1.5758 1.23972,-2.2825 1.772715,-2.1204 0.556123,0.255 0.567709,1.1471 0.03476,2.6765 -0.903758,2.3868 -0.695204,3.6845 0.625664,3.893 1.29765,0.2549 2.942913,0.4751 4.935794,0.6604 3.336845,0.4403 5.016867,2.943 5.040072,7.508 -0.09272,3.2442 -2.10875,4.5651 -6.048086,3.9626 -2.131917,-0.3245 -3.800353,-0.7068 -5.005312,-1.1471 0.0695,3.8235 -1.274522,6.0017 -4.032058,6.5347 1.344,2.549 5.538263,4.565 12.5828,6.0481 1.923305,0.4866 2.745937,1.0659 2.467897,1.738 -0.06955,0.3244 -0.973287,0.3128 -2.711211,-0.035 -6.534737,-1.066 -10.902795,-3.0009 -13.104186,-5.8048 -2.201426,-2.8039 -3.232612,-5.573 -3.093562,-8.3074 -1.367204,0.533 -3.03564,0.9501 -5.005312,1.2513 -4.217444,0.7416 -6.291403,-0.5561 -6.221882,-3.893 -0.185384,-4.8199 1.506224,-7.4616 5.074831,-7.9251 1.830637,-0.139 3.753973,-0.3823 5.770013,-0.7299 0.996414,-0.3708 1.077518,-1.6453 0.243314,-3.8235 -0.486641,-1.483 -0.440296,-2.352 0.139036,-2.607 0.556132,-0.1621 1.112277,0.5446 1.668438,2.1204 1.06593,3.4295 0.278057,5.4687 -2.36362,6.1176 -1.714794,0.3244 -3.429576,0.533 -5.144349,0.6256 -2.409971,0.3013 -3.568607,2.3173 -3.475912,6.0481 -0.02318,2.016 1.251323,2.7692 3.823503,2.2594 1.969673,-0.2086 3.7308,-0.6025 5.283386,-1.1819 l 0.06952,-3.6497 c 0.02316,-1.5525 0.335991,-2.3288 0.938496,-2.3288 0.579303,0 0.857376,0.7763 0.834219,2.3288 l -0.03476,3.6497 c -0.20857,3.1515 0.278057,5.4341 1.459882,6.8476 2.340428,-0.023 3.41796,-2.3636 3.232598,-7.0214 l -0.104277,-3.6497 c -0.09271,-1.5525 0.150603,-2.3288 0.729941,-2.3288 0.60247,0 0.950061,0.7763 1.042774,2.3288"
         style="font-size:35.5933342px;text-align:start;text-anchor:start;font-family:HakusyuTensyoKyokan;-inkscape-font-specification:HakusyuTensyoKyokan"
         id="path2837" />
      <path
         d="m 45.193598,1281.2405 -2.433138,0.1391 c -1.784309,0.1622 -2.676458,-0.058 -2.676452,-0.6604 -6e-6,-0.6025 0.892143,-0.9733 2.676452,-1.1123 5.70048,-0.2781 11.482074,-0.2781 17.344799,0 1.784273,0.139 2.676422,0.5098 2.676452,1.1123 -3e-5,0.6025 -0.892179,0.8226 -2.676452,0.6604 l -2.572175,-0.1391 c 2.108694,5.7932 3.105121,9.3155 2.989284,10.5668 -2.7e-5,2.5027 -1.598945,3.7888 -4.796758,3.8583 -2.96613,-0.1391 -5.955411,-0.1391 -8.967852,0 -3.197848,-0.07 -4.796766,-1.3788 -4.796757,-3.9278 -0.0927,-1.0659 0.984832,-4.565 3.232597,-10.4973 m 14.390274,-5.8742 c -5.538306,-0.2549 -11.007068,-0.2549 -16.406302,0 -1.78431,0.1622 -2.676459,-0.058 -2.676452,-0.6605 -7e-6,-0.5793 0.892142,-0.95 2.676452,-1.1123 5.399234,-0.2548 10.867996,-0.2548 16.406302,0 1.784273,0.1623 2.676423,0.533 2.676452,1.1123 -2.9e-5,0.6025 -0.892179,0.8227 -2.676452,0.6605 m -4.449167,5.7352 c -2.549021,-0.07 -5.074847,-0.07 -7.577487,0 -2.52584,5.77 -3.80034,9.3386 -3.823503,10.7058 -10e-6,1.3209 0.857381,2.016 2.572175,2.0856 3.313686,-0.1622 6.592626,-0.1622 9.83683,0 1.737931,-0.07 2.606908,-0.7532 2.606933,-2.0508 0.20853,-1.0196 -0.996452,-4.5998 -3.614948,-10.7406 m -0.243314,-12.1309 c -1.52942,0 -2.734402,-0.3128 -3.614948,-0.9385 -0.903753,0.6257 -2.491085,0.9385 -4.761998,0.9385 l -4.449167,0.1738 c -1.96969,0.2086 -3.058808,1.6453 -3.267357,4.3101 -0.532978,6.8591 -0.787878,14.7726 -0.7647,23.7405 -0.02318,1.6221 -0.336009,2.4331 -0.938497,2.4331 -0.556149,0 -0.822635,-0.811 -0.799459,-2.4331 -0.04635,-9.0837 0.196965,-17.1131 0.729941,-24.0881 0.208551,-3.5917 1.888573,-5.4919 5.040072,-5.7005 3.638108,-0.093 5.897449,-0.2201 6.778027,-0.3823 0.880548,-0.1622 1.332416,-0.3939 1.355606,-0.6952 0.04633,-0.3244 0.08109,-0.5909 0.104277,-0.7995 0.04633,-0.2085 0.09267,-0.3939 0.139037,-0.5561 0.0695,-0.1854 0.162192,-0.3244 0.278073,-0.4171 0.115846,-0.1159 0.301228,-0.1738 0.556145,-0.1738 0.185364,0 0.335987,0.058 0.451869,0.1738 0.139018,0.093 0.231709,0.2317 0.278073,0.4171 0.04633,0.1622 0.08109,0.3476 0.104277,0.5561 0.04633,0.2086 0.09267,0.4751 0.139037,0.7995 0.04633,0.3013 0.509781,0.533 1.390364,0.6952 0.903716,0.1622 3.209402,0.2897 6.917064,0.3823 2.989254,0.2318 4.646104,2.0161 4.970554,5.3529 0.463422,6.6506 0.706736,14.7958 0.729941,24.4357 0.02314,1.6221 -0.243346,2.4331 -0.799459,2.4331 -0.602523,0 -0.915355,-0.811 -0.938497,-2.4331 -0.06955,-9.524 -0.324449,-17.5534 -0.7647,-24.0881 -0.324448,-2.4099 -1.40198,-3.7308 -3.232598,-3.9625 l -5.630977,-0.1738"
         style="font-size:35.5933342px;text-align:start;text-anchor:start;font-family:HakusyuTensyoKyokan;-inkscape-font-specification:HakusyuTensyoKyokan"
         id="path2839" />
    </g>
    <g
       transform="scale(1.2362773,0.80888002)"
       style="font-size:35.23246384px;font-style:normal;font-variant:normal;font-weight:normal;font-stretch:normal;text-align:center;writing-mode:tb-rl;text-anchor:middle;fill:#000000;fill-opacity:1;stroke:none;font-family:FreeSans;-inkscape-font-specification:FreeSans"
       id="text2862-7-0">
      <path
         d="m 62.746952,1202.3301 c -7.623855,-0.5098 -15.363543,-0.5098 -23.21909,0 -1.784305,0.1391 -2.676455,-0.093 -2.676451,-0.6952 -4e-6,-0.5793 0.892146,-0.95 2.676451,-1.1123 7.855547,-0.4866 15.595235,-0.4866 23.21909,0 1.78427,0.1623 2.67642,0.533 2.676451,1.1123 -3.1e-5,0.6025 -0.892181,0.8343 -2.676451,0.6952 m -1.876993,12.7913 c -6.395698,-0.5097 -12.860887,-0.5097 -19.395586,0 -1.784308,0.1623 -2.676457,-0.058 -2.676452,-0.6604 -5e-6,-0.6025 0.892144,-0.9732 2.676452,-1.1123 6.534699,-0.5098 12.999888,-0.5098 19.395586,0 1.784272,0.1391 2.676422,0.5098 2.676452,1.1123 -3e-5,0.6025 -0.89218,0.8227 -2.676452,0.6604 m 4.240612,14.1818 c -9.269119,-1.9465 -18.468689,-1.9465 -27.598737,0 -1.784304,0.3707 -2.676453,0.2664 -2.676452,-0.3129 -1e-6,-0.6025 0.892148,-1.0891 2.676452,-1.4599 9.130048,-1.9465 18.329618,-1.9465 27.598737,0 1.761096,0.3708 2.641659,0.8574 2.641693,1.4599 -3.4e-5,0.5793 -0.880597,0.6836 -2.641693,0.3129"
         style="font-size:35.5933342px;text-align:start;text-anchor:start;font-family:HakusyuTensyoKyokan;-inkscape-font-specification:HakusyuTensyoKyokan"
         id="path2842" />
    </g>
  </g>
</svg>
